<svg xmlns="http://www.w3.org/2000/svg" xmlns:xlink="http://www.w3.org/1999/xlink" width="115" height="98"><defs><linearGradient id="a" x1=".544" y1=".654" x2=".53" y2="1" gradientUnits="objectBoundingBox"><stop offset="0" stop-color="#023c8e"/><stop offset="1" stop-color="#000206"/></linearGradient><linearGradient id="d" x1=".082" y1="-.291" x2=".832" y2=".597" gradientUnits="objectBoundingBox"><stop offset="0" stop-color="#e5e2df"/><stop offset="0" stop-color="#d8d4d0"/><stop offset="0" stop-color="#ccc7c2"/><stop offset=".068" stop-color="#bdb8b4"/><stop offset=".146" stop-color="#a7a3a0"/><stop offset=".308" stop-color="#e0e1e2"/><stop offset=".522" stop-color="#e0e1e2"/><stop offset=".594" stop-color="#d3d3d3"/><stop offset=".73" stop-color="#b1aeac"/><stop offset=".769" stop-color="#a7a3a0"/><stop offset=".951" stop-color="#e0e1e2"/><stop offset=".999" stop-color="#d1d3d4"/><stop offset="1" stop-color="#d1d3d4"/><stop offset="1" stop-color="#a7a9ac"/></linearGradient><linearGradient id="f" x1=".055" y1=".265" x2=".78" y2=".69" xlink:href="#d"/><linearGradient id="g" x1=".221" y1=".137" x2=".779" y2=".863" xlink:href="#d"/><linearGradient id="h" x1=".077" y1="-.379" x2=".827" y2=".846" xlink:href="#d"/><linearGradient id="i" x1=".121" y1=".165" x2="1.328" y2=".625" xlink:href="#d"/><linearGradient id="j" x1=".135" y1=".476" x2=".944" y2="1.137" xlink:href="#d"/><linearGradient id="k" x1=".291" y1=".343" x2=".773" y2=".705" xlink:href="#d"/><linearGradient id="l" x1=".268" y1=".365" x2="1.019" y2=".956" xlink:href="#d"/><linearGradient id="m" x1=".306" y1=".365" x2=".694" y2=".632" xlink:href="#d"/><linearGradient id="n" x1=".039" y1="-.068" x2="1.211" y2=".625" xlink:href="#d"/><linearGradient id="o" x1="-.012" y1=".021" x2="1.161" y2=".715" xlink:href="#d"/><linearGradient id="p" x1="-.042" y1=".074" x2="1.131" y2=".768" xlink:href="#d"/><linearGradient id="q" x1="-.02" y1=".035" x2="1.153" y2=".728" xlink:href="#d"/><linearGradient id="r" x1="-.06" y1=".106" x2="1.113" y2=".8" xlink:href="#d"/><linearGradient id="ad" x1="-.06" y1=".107" x2="1.113" y2=".8" xlink:href="#d"/><linearGradient id="ae" x1=".1" y1=".128" x2="1.067" y2=".695" xlink:href="#d"/><linearGradient id="af" x1=".059" y1="-.229" x2="1.001" y2=".997" xlink:href="#d"/><linearGradient id="ag" x1=".125" y1="-.612" x2=".875" y2=".612" xlink:href="#d"/><linearGradient id="ah" x1="-.302" y1=".346" x2=".647" y2=".708" xlink:href="#d"/><linearGradient id="ai" x1=".237" y1=".42" x2=".987" y2="1.032" xlink:href="#d"/><linearGradient id="aj" x1="-.121" y1=".274" x2=".961" y2="1.088" xlink:href="#d"/><linearGradient id="ak" x1="-.05" y1=".412" x2=".924" y2="1.177" xlink:href="#d"/><linearGradient id="al" x1="-.113" y1=".234" x2=".999" y2="1" xlink:href="#d"/><linearGradient id="am" x1="-.086" y1=".153" x2=".664" y2=".597" xlink:href="#d"/><linearGradient id="an" x1=".217" y1=".333" x2=".664" y2=".597" xlink:href="#d"/><linearGradient id="ao" x1=".29" y1=".376" x2=".664" y2=".597" xlink:href="#d"/><linearGradient id="ap" x1=".263" y1=".36" x2=".664" y2=".597" xlink:href="#d"/><linearGradient id="aq" x1=".336" y1=".403" x2=".664" y2=".597" xlink:href="#d"/><linearGradient id="au" x1=".073" y1=".136" x2=".823" y2=".708" xlink:href="#d"/><linearGradient id="be" y1=".5" x2="1" y2=".5" gradientUnits="objectBoundingBox"><stop offset=".006" stop-color="#dee3e6"/><stop offset=".253" stop-color="#fffde5"/><stop offset=".395" stop-color="#f0ebd8"/><stop offset=".596" stop-color="#d6cdc1"/><stop offset=".787" stop-color="#ededee"/><stop offset="1" stop-color="#d8d5bb"/></linearGradient><radialGradient id="c" cx=".5" cy=".5" r="4.771" gradientTransform="matrix(.085 0 0 .077 .461 1.438)" gradientUnits="objectBoundingBox"><stop offset="0" stop-color="#1a323b"/><stop offset="1" stop-color="#fff"/></radialGradient><clipPath id="b"><path d="M621.426 397.569h90.764l-15.821 48.67s-5.456 21.165-30.5 21.165-31.829-21.165-31.829-21.165z" fill="#03ff14"/></clipPath><style>.e{fill:#ccc;mix-blend-mode:multiply;isolation:isolate}.o{fill:#d9d9d9}.p{fill:#ff6310}.r{fill:#fafcfb}.s{fill:#d5d7d9}.t{fill:#b9bdc0}.u{fill:#bcbdbc}.v{fill:#e3e5e6}.w{fill:#f1f2f2}.y{fill:url(#d)}.z{fill:url(#f)}.aa{fill:url(#g)}.ab{fill:url(#h)}.ad{fill:url(#j)}.ae{fill:url(#k)}.af{fill:url(#l)}.ag{fill:url(#m)}.ah{fill:url(#n)}.ai{fill:url(#o)}.aj{fill:url(#p)}.ak{fill:url(#q)}.an{fill:url(#ae)}.ao{fill:url(#af)}.ap{fill:url(#ag)}.ar{fill:url(#ai)}.as{fill:url(#aj)}.at{fill:url(#ak)}.au{fill:url(#al)}.av{fill:url(#am)}.aw{fill:url(#an)}.ax{fill:url(#ao)}.ay{fill:url(#ap)}.az{fill:url(#aq)}</style></defs><g transform="translate(26.137 30.341)" stroke="rgba(1,104,179,.21)" stroke-width="4" fill="url(#a)"><circle cx="32" cy="32" r="32" stroke="none"/><circle cx="32" cy="32" r="34" fill="none"/></g><g clip-path="url(#b)" transform="translate(-607.332 -373.074)"><g transform="translate(280.733 295.534)"><path d="M394.029 157.437h-20.153l-13.26 13.26h46.673z" fill="#666"/><path class="e" d="M383.953 157.437h10.077l13.26 13.26h-23.337z"/><path fill="#4d4d4d" d="M360.616 170.697h46.673v13.661h-46.673z"/><path fill="#ffd650" stroke="#fa0" stroke-miterlimit="10" d="M371.003 173.858h25.9v7.338h-25.9z"/><path class="e" d="M383.952 170.697h23.336v13.661h-23.336z"/><ellipse cx="11.621" cy="5.312" rx="11.621" ry="5.312" transform="translate(372.331 157.856)" fill="#fa0"/><ellipse cx="9.131" cy="4.174" rx="9.131" ry="4.174" transform="translate(374.822 156.863)" fill="#ffb91b"/><ellipse cx="7.104" cy="3.248" rx="7.104" ry="3.248" transform="translate(376.848 156.258)" fill="#ffc735"/><path d="M383.952 108.881c-16.2 0-22.786 7.429-22.786 7.429 11.393 6.369 17.534 31.74 18.175 41.71 0 1.164 2.064 2.108 4.611 2.108s4.611-.944 4.611-2.108c.641-9.97 6.782-35.342 18.175-41.71-.005 0-6.584-7.429-22.786-7.429z" fill="#ffd03b"/><path d="M383.952 108.881c-16.2 0-22.786 7.429-22.786 7.429a14.438 14.438 0 011.265.809c3.343 2.057 12.775 7.341 21.522 7.341s18.178-5.283 21.521-7.341a14.519 14.519 0 011.265-.809s-6.585-7.429-22.787-7.429z" fill="#ffbb27"/><path d="M383.953 108.881v59.6c6.418 0 11.621-2.379 11.621-5.313 0-1.387-1.172-2.646-3.076-3.592a5.932 5.932 0 00-2.221-1.547 5.6 5.6 0 00-1.638-.961c.909-10.134 6.589-32.724 16.836-39.95l.449-.3c.27-.176.54-.35.815-.5 0-.008-6.586-7.437-22.786-7.437z" style="isolation:isolate;mix-blend-mode:multiply" fill="#ffd03b"/></g></g><path d="M103.547 5.747l-1.735.352a.767.767 0 000 1.5l1.735.352a4.343 4.343 0 013.394 3.396l.352 1.735a.767.767 0 001.5 0l.352-1.735a4.343 4.343 0 013.396-3.4l1.735-.352a.767.767 0 000-1.5l-1.735-.348a4.343 4.343 0 01-3.394-3.4l-.352-1.735a.767.767 0 00-1.5 0l-.354 1.735a4.343 4.343 0 01-3.394 3.4z" fill="#d0d0d0"/><path class="o" d="M27.155 36.013l-.534.108a.236.236 0 000 .462l.534.108a1.336 1.336 0 011.044 1.044l.108.534a.236.236 0 00.462 0l.108-.534a1.336 1.336 0 011.044-1.041l.534-.108a.236.236 0 000-.462l-.534-.108a1.336 1.336 0 01-1.044-1.044l-.108-.534a.236.236 0 00-.462 0l-.108.534a1.336 1.336 0 01-1.044 1.041zM5.014 25.804l-2.408.488a1.064 1.064 0 000 2.086l2.408.488a6.026 6.026 0 014.708 4.708l.488 2.408a1.064 1.064 0 002.086 0l.488-2.408a6.026 6.026 0 014.708-4.708l2.408-.488a1.064 1.064 0 000-2.086l-2.408-.488a6.026 6.026 0 01-4.708-4.708l-.488-2.408a1.064 1.064 0 00-2.086 0l-.488 2.408a6.026 6.026 0 01-4.708 4.708z"/><path class="p" d="M4.481 11.859a.747.747 0 01.747.747v2.022a.747.747 0 01-1.494 0v-2.022a.747.747 0 01.747-.747zM4.481 6.414a.747.747 0 01.747.747v2.022a.747.747 0 01-1.494 0V7.161a.747.747 0 01.747-.747zM.747 10.148h2.022a.747.747 0 010 1.494H.747a.747.747 0 110-1.494zM6.189 10.148h2.022a.747.747 0 010 1.494H6.189a.747.747 0 010-1.494z"/><g><path class="p" d="M95.863 24.907a1.017 1.017 0 011.017 1.017v2.753a1.017 1.017 0 11-2.033 0v-2.753a1.017 1.017 0 011.016-1.017zM95.863 17.496a1.017 1.017 0 011.017 1.017v2.753a1.017 1.017 0 01-2.033 0v-2.753a1.017 1.017 0 011.016-1.017zM90.781 22.578h2.753a1.017 1.017 0 010 2.033h-2.753a1.017 1.017 0 110-2.033zM98.192 22.578h2.753a1.017 1.017 0 010 2.033h-2.753a1.017 1.017 0 010-2.033z"/></g><g><path d="M320.931 606.6c0 .591-5.644 1.07-12.607 1.07s-12.607-.479-12.607-1.07 5.644-1.071 12.607-1.071 12.607.476 12.607 1.071z" transform="translate(-251.268 -563.3)" style="isolation:isolate;mix-blend-mode:multiply" fill="url(#c)" opacity=".2"/><path class="r" d="M57.056 13.51h-29.8l29.8 29.054L86.86 13.51z"/><path class="r" d="M57.056 13.51h-29.8l29.8 29.054L86.86 13.51z"/><path class="s" d="M48.97 4.932l-2.427-3.716h-4.7l-5.3 4.436 1.324 7.807z"/><path class="t" d="M46.543 1.212h-4.7l-5.3 4.436z"/><path class="r" d="M57.056 1.212H46.543l2.427 3.716z"/><path class="s" d="M57.051 1.212l-8.085 3.716 8.085 8.526z"/><path class="u" d="M48.971 4.933l-3.972 8.526h12.057z"/><path class="r" d="M48.97 4.933l-11.108 8.526h7.136zM37.863 13.457L36.539 5.65l-9.309 7.786z"/><path class="t" d="M31.463 13.457l5.076-7.807-9.309 7.786M27.251 13.458l29.8 29.106-3.745-9.7 3.745-19.408z"/><path class="r" d="M27.251 13.458l29.8 29.106-3.745-9.7-8.312-19.408z"/><path class="t" d="M27.251 13.458l29.8 29.106-3.745-9.7-15.444-19.406z"/><path class="r" d="M27.251 13.458l19.874 19.408-9.263-19.408"/><path class="t" d="M27.251 13.458l19.874 19.408-15.663-19.408z"/><path class="s" d="M48.97 4.932l-2.427-3.716h-4.7l-5.3 4.436 1.324 7.807z"/><path class="t" d="M46.543 1.212h-4.7l-5.3 4.436z"/><path class="r" d="M57.056 1.212H46.543l2.427 3.716z"/><path class="v" d="M48.971 4.933l-3.972 8.526h12.057z"/><path class="w" d="M48.97 4.933l-11.108 8.526h7.136zM37.863 13.457L36.539 5.65l-9.309 7.786z"/><path class="t" d="M31.463 13.457l5.076-7.807-9.309 7.786M27.251 13.458l29.8 29.106-3.745-9.7 3.745-19.408z"/><path class="r" d="M27.251 13.458l29.8 29.106-3.745-9.7-8.312-19.408z"/><path class="s" d="M27.251 13.458l29.8 29.106-3.745-9.7-15.444-19.406z"/><path class="r" d="M27.251 13.458l19.874 19.408-9.263-19.408"/><path class="t" d="M27.23 13.439l19.9 19.429-15.667-19.41z"/><path class="s" d="M65.141 4.932l2.427-3.716h4.7l5.3 4.436-1.324 7.807z"/><path class="t" d="M67.568 1.212h4.7l5.3 4.436z"/><path class="r" d="M57.057 1.212H67.57l-2.427 3.716z"/><path class="s" d="M57.057 1.212l8.085 3.716-8.085 8.53z"/><path class="u" d="M65.141 4.933l3.972 8.526H57.057z"/><path class="r" d="M65.141 4.933l11.108 8.526h-7.135zM76.249 13.457l1.324-7.807 9.309 7.786z"/><path class="t" d="M82.648 13.457L77.572 5.65l9.309 7.786M86.857 13.458l-29.8 29.106 3.745-9.7-3.745-19.406z"/><path class="r" d="M86.857 13.458l-29.8 29.106 3.745-9.7 8.312-19.408z"/><path class="t" d="M86.857 13.458l-29.8 29.106 3.745-9.7L76.25 13.456z"/><path class="r" d="M86.86 13.458L66.986 32.866l9.259-19.408"/><path class="t" d="M86.86 13.458L66.986 32.866l15.659-19.408z"/><path class="s" d="M65.141 4.932l2.427-3.716h4.7l5.3 4.436-1.324 7.807z"/><path class="t" d="M67.568 1.212h4.7l5.3 4.436z"/><path class="r" d="M57.057 1.212H67.57l-2.427 3.716z"/><path class="s" d="M57.051 1.212l-8.085 3.716 8.085 8.526 8.085-8.526z"/><path class="v" d="M65.141 4.933l3.972 8.526H57.057z"/><path class="w" d="M65.141 4.933l11.108 8.526h-7.135zM76.249 13.457l1.324-7.807 9.309 7.786z"/><path class="t" d="M82.648 13.457L77.572 5.65l9.309 7.786M86.857 13.458l-29.8 29.106 3.745-9.7-3.745-19.406z"/><path class="r" d="M86.857 13.458l-29.8 29.106 3.745-9.7 8.312-19.408z"/><path class="s" d="M86.857 13.458l-29.8 29.106 3.745-9.7L76.25 13.456z"/><path class="r" d="M86.86 13.458L66.986 32.866l9.259-19.408"/><path class="t" d="M86.881 13.439l-19.9 19.429 15.664-19.41z"/><g style="mix-blend-mode:soft-light;isolation:isolate"><path class="y" d="M57.056 13.51h-29.8l29.8 29.054L86.86 13.51z"/><path class="y" d="M57.056 13.51h-29.8l29.8 29.054L86.86 13.51z"/><path class="z" d="M48.97 4.932l-2.427-3.716h-4.7l-5.3 4.436 1.324 7.807z"/><path class="aa" d="M46.543 1.212h-4.7l-5.3 4.436z"/><path class="ab" d="M57.056 1.212H46.543l2.427 3.716z"/><path d="M341.2 266.3l-8.085 3.716 8.085 8.526z" transform="translate(-284.149 -265.088)" fill="url(#i)"/><path class="ad" d="M48.971 4.933l-3.972 8.526h12.057z"/><path class="ae" d="M48.97 4.933l-11.108 8.526h7.136z"/><path class="af" d="M37.863 13.457L36.539 5.65l-9.309 7.786z"/><path class="ag" d="M31.463 13.457l5.076-7.807-9.309 7.786"/><path class="ah" d="M27.251 13.458l29.8 29.106-3.745-9.7 3.745-19.408z"/><path class="ai" d="M27.251 13.458l29.8 29.106-3.745-9.7-8.312-19.408z"/><path class="aj" d="M27.251 13.458l29.8 29.106-3.745-9.7-15.444-19.406z"/><path class="ak" d="M27.251 13.458l19.874 19.408-9.263-19.408"/><path d="M153.462 367.57l19.874 19.408-15.663-19.408z" transform="translate(-126.211 -354.112)" fill="url(#r)"/><path class="z" d="M48.97 4.932l-2.427-3.716h-4.7l-5.3 4.436 1.324 7.807z"/><path class="aa" d="M46.543 1.212h-4.7l-5.3 4.436z"/><path class="ab" d="M57.056 1.212H46.543l2.427 3.716z"/><path class="ad" d="M48.971 4.933l-3.972 8.526h12.057z"/><path class="ae" d="M48.97 4.933l-11.108 8.526h7.136z"/><path class="af" d="M37.863 13.457L36.539 5.65l-9.309 7.786z"/><path class="ag" d="M31.463 13.457l5.076-7.807-9.309 7.786"/><path class="ah" d="M27.251 13.458l29.8 29.106-3.745-9.7 3.745-19.408z"/><path class="ai" d="M27.251 13.458l29.8 29.106-3.745-9.7-8.312-19.408z"/><path class="aj" d="M27.251 13.458l29.8 29.106-3.745-9.7-15.444-19.406z"/><path class="ak" d="M27.251 13.458l19.874 19.408-9.263-19.408"/><path d="M153.287 367.4l19.9 19.429-15.667-19.41z" transform="translate(-126.057 -353.961)" fill="url(#ad)"/><path class="an" d="M65.141 4.932l2.427-3.716h4.7l5.3 4.436-1.324 7.807z"/><path class="ao" d="M67.568 1.212h4.7l5.3 4.436z"/><path class="ap" d="M57.057 1.212H67.57l-2.427 3.716z"/><path d="M400 266.3l8.085 3.716-8.085 8.53z" transform="translate(-342.943 -265.088)" fill="url(#ah)"/><path class="ar" d="M65.141 4.933l3.972 8.526H57.057z"/><path class="as" d="M65.141 4.933l11.108 8.526h-7.135z"/><path class="at" d="M76.249 13.457l1.324-7.807 9.309 7.786z"/><path class="au" d="M82.648 13.457L77.572 5.65l9.309 7.786"/><path class="av" d="M86.857 13.458l-29.8 29.106 3.745-9.7-3.745-19.406z"/><path class="aw" d="M86.857 13.458l-29.8 29.106 3.745-9.7 8.312-19.408z"/><path class="ax" d="M86.857 13.458l-29.8 29.106 3.745-9.7L76.25 13.456z"/><path class="ay" d="M86.86 13.458L66.986 32.866l9.259-19.408"/><path class="az" d="M86.86 13.458L66.986 32.866l15.659-19.408z"/><path class="an" d="M65.141 4.932l2.427-3.716h4.7l5.3 4.436-1.324 7.807z"/><path class="ao" d="M67.568 1.212h4.7l5.3 4.436z"/><path class="ap" d="M57.057 1.212H67.57l-2.427 3.716z"/><path d="M341.2 266.3l-8.085 3.716 8.085 8.526 8.085-8.526z" transform="translate(-284.149 -265.088)" fill="url(#au)"/><path class="ar" d="M65.141 4.933l3.972 8.526H57.057z"/><path class="as" d="M65.141 4.933l11.108 8.526h-7.135z"/><path class="at" d="M76.249 13.457l1.324-7.807 9.309 7.786z"/><path class="au" d="M82.648 13.457L77.572 5.65l9.309 7.786"/><path class="av" d="M86.857 13.458l-29.8 29.106 3.745-9.7-3.745-19.406z"/><path class="aw" d="M86.857 13.458l-29.8 29.106 3.745-9.7 8.312-19.408z"/><path class="ax" d="M86.857 13.458l-29.8 29.106 3.745-9.7L76.25 13.456z"/><path class="ay" d="M86.86 13.458L66.986 32.866l9.259-19.408"/><path class="az" d="M86.881 13.439l-19.9 19.429 15.664-19.41z"/></g><path d="M198.48 266.042l-4.248-.036H172.3l-4.248.036-14.591 12.207 29.8 29.106 29.8-29.106z" transform="translate(-126.211 -264.826)" style="isolation:isolate;mix-blend-mode:multiply" fill="url(#be)" opacity=".2"/></g></svg>