<svg xmlns="http://www.w3.org/2000/svg" width="114" height="98"><defs><linearGradient id="a" x1=".544" y1=".654" x2=".53" y2="1" gradientUnits="objectBoundingBox"><stop offset="0" stop-color="#023c8e"/><stop offset="1" stop-color="#000206"/></linearGradient><clipPath id="b"><path d="M621.426 377.569h90.764l-15.821 68.67s-5.317 21.217-30.364 21.217-31.968-21.217-31.968-21.217z" transform="translate(-591.881 124.424)" fill="#03ff14"/></clipPath><filter id="c" x="49.137" y="19.341" width="17" height="34" filterUnits="userSpaceOnUse"><feOffset dx="1" dy="1"/><feGaussianBlur result="d"/><feFlood flood-color="#fff"/><feComposite operator="in" in2="d"/><feComposite in="SourceGraphic"/></filter><style>.d,.f{fill:#ffd96b}.e{fill:#ffb103}.f{fill-rule:evenodd}.l{fill:#d9d9d9}.m{fill:#ff6310}.n{fill:#f38a08}.o{fill:#dc7601}.p{fill:#d76800}.q{fill:#ffe67a}.r{fill:#ffd93b}.s{fill:#c86d10}.t{fill:#fff3a9}.u{fill:#ffe162}.v{fill:#fff2b4}.w{fill:#fdde54}.x{fill:#855f13}.y{fill:#face1d}.z{fill:#f6df3d}.aa{fill:#f8e261}.ad{fill:#c46812}.ae{fill:#bf5d00}.ah{fill:#e5a300}.ai{fill:#d28800}.ak{fill:#ff9c08}</style></defs><g transform="translate(26.137 30.341)" stroke="rgba(1,104,179,.21)" stroke-width="4" fill="url(#a)"><circle cx="32" cy="32" r="32" stroke="none"/><circle cx="32" cy="32" r="34" fill="none"/></g><g clip-path="url(#b)" transform="translate(-15.451 -497.498)"><path class="d" d="M70.564 559.265h3.975v9.945h-3.975z"/><path class="e" d="M70.564 564.029h3.975v5.378h-3.975z"/><path class="f" d="M72.551 582.774c5.48 0 9.95-4.062 9.95-9.041s-4.47-9.041-9.95-9.041-9.949 4.062-9.949 9.041 4.47 9.041 9.949 9.041z"/><path fill="#8e4a15" d="M49.064 577.021h46.974v18.134H49.064z"/><path class="e" d="M57.818 580.379h29.466v11.417H57.818z"/><path class="d" d="M60.57 573.733h23.961v3.288H60.57z"/><path class="e" d="M62.602 572.799h19.899v.934H62.602z"/><path d="M80.533 571.962a10 10 0 00-5.576-5.669c1.456.973 2.235 3.39 2.513 5.669z" fill="#ffefc1" fill-rule="evenodd"/><path fill="#ffefc1" d="M72.773 559.877h1.303v3.853h-1.303z"/><path d="M72.552 561.579c-1.989-3.5-15.715-3.215-21.358-13.317-4.287-7.676 5.547-25.239-1.514-30.733l7.458-7.69h30.828l7.458 7.69c-7.061 5.494 2.773 23.057-1.514 30.733-5.644 10.102-19.369 9.821-21.358 13.317z" fill-rule="evenodd" fill="#ffb103"/><path class="f" d="M72.551 558.021a16.165 16.165 0 012.437-1.11c1.956-.737 3.973-1.321 5.937-2.051 4.291-1.594 8.316-3.772 10.634-7.921 1.628-2.915.282-9.461-.276-12.619-.873-4.949-2.4-12.05.476-16.689l-4.931-5.084H58.274l-4.928 5.082c2.862 4.594 1.353 11.714.474 16.691-.558 3.158-1.9 9.7-.276 12.619 2.318 4.149 6.343 6.327 10.634 7.921 1.964.73 3.98 1.314 5.937 2.051a16.107 16.107 0 012.436 1.11z"/></g><path d="M103.547 5.747l-1.735.352a.767.767 0 000 1.5l1.735.352a4.343 4.343 0 013.394 3.396l.352 1.735a.767.767 0 001.5 0l.352-1.735a4.343 4.343 0 013.396-3.4l1.735-.352a.767.767 0 000-1.5l-1.735-.348a4.343 4.343 0 01-3.394-3.4l-.352-1.735a.767.767 0 00-1.5 0l-.354 1.735a4.343 4.343 0 01-3.394 3.4z" fill="#d0d0d0"/><path class="l" d="M27.155 36.013l-.534.108a.236.236 0 000 .462l.534.108a1.336 1.336 0 011.044 1.044l.108.534a.236.236 0 00.462 0l.108-.534a1.336 1.336 0 011.044-1.041l.534-.108a.236.236 0 000-.462l-.534-.108a1.336 1.336 0 01-1.044-1.044l-.108-.534a.236.236 0 00-.462 0l-.108.534a1.336 1.336 0 01-1.044 1.041zM5.014 25.804l-2.408.488a1.064 1.064 0 000 2.086l2.408.488a6.026 6.026 0 014.708 4.708l.488 2.408a1.064 1.064 0 002.086 0l.488-2.408a6.026 6.026 0 014.708-4.708l2.408-.488a1.064 1.064 0 000-2.086l-2.408-.488a6.026 6.026 0 01-4.708-4.708l-.488-2.408a1.064 1.064 0 00-2.086 0l-.488 2.408a6.026 6.026 0 01-4.708 4.708z"/><path class="m" d="M4.481 11.859a.747.747 0 01.747.747v2.022a.747.747 0 01-1.494 0v-2.022a.747.747 0 01.747-.747zM4.481 6.414a.747.747 0 01.747.747v2.022a.747.747 0 01-1.494 0V7.161a.747.747 0 01.747-.747zM.747 10.148h2.022a.747.747 0 010 1.494H.747a.747.747 0 110-1.494zM6.189 10.148h2.022a.747.747 0 010 1.494H6.189a.747.747 0 010-1.494z"/><g><path class="m" d="M95.863 24.907a1.017 1.017 0 011.017 1.017v2.753a1.017 1.017 0 11-2.033 0v-2.753a1.017 1.017 0 011.016-1.017zM95.863 17.496a1.017 1.017 0 011.017 1.017v2.753a1.017 1.017 0 01-2.033 0v-2.753a1.017 1.017 0 011.016-1.017zM90.781 22.578h2.753a1.017 1.017 0 010 2.033h-2.753a1.017 1.017 0 110-2.033zM98.192 22.578h2.753a1.017 1.017 0 010 2.033h-2.753a1.017 1.017 0 010-2.033z"/></g><g><path class="n" d="M43.675 22.875c.015-.1.029-.2.038-.3 0-.05.006-.1.009-.152s.01-.123.012-.186v-.095a6.931 6.931 0 00-.788-3.179 9.739 9.739 0 00-.168-.32l-.04-.073c-.058-.1-.118-.207-.181-.309l-.024-.038a9.253 9.253 0 00-.178-.277l-.049-.063q-.1-.149-.207-.295l-.013-.018-.035-.045q-.075-.1-.154-.2l-.059-.076-.195-.239-.014-.017a12.887 12.887 0 00-.217-.249l-.063-.069q-.086-.094-.174-.187l-.061-.065c-.077-.08-.155-.159-.234-.237l-.036-.034q-.1-.1-.21-.2l-.073-.068-.2-.179-.056-.049q-.127-.11-.258-.217l-.062-.05q-.1-.084-.209-.166l-.079-.061q-.121-.093-.245-.183l-.03-.022-.279-.2-.078-.053q-.109-.074-.219-.145l-.079-.051q-.144-.092-.29-.181l-.033-.019q-.132-.079-.265-.155l-.088-.049q-.118-.066-.237-.13l-.071-.038q-.151-.08-.3-.156l-.068-.033q-.123-.06-.247-.118l-.092-.042q-.135-.062-.271-.12l-.045-.02-.27-.112-.039-.015-.154-.059-.191-.078-.158-.056-.193-.067-.161-.052-.193-.061-.163-.048-.193-.054-.164-.043-.193-.048-.165-.039-.194-.042-.166-.034-.194-.036-.166-.028-.195-.03-.165-.023-.2-.023-.163-.018-.2-.017-.161-.012-.2-.01-.157-.007h-.707c-.078 0-.156.008-.234.013l-.118.007q-.175.013-.349.033c-.089.01-.176.022-.263.035l-.074.011-.2.032-.067.012q-.125.024-.248.05l-.038.009-.207.049-.071.018-.187.052-.052.015a7.594 7.594 0 00-.228.072l-.052.018-.175.062-.065.025q-.095.037-.187.075l-.03.012q-.105.045-.208.093l-.056.027-.154.076-.057.029c-.066.035-.131.07-.194.106h-.007a6.676 6.676 0 00-.181.109l-.053.034c-.047.03-.093.06-.138.091l-.046.031q-.088.061-.172.125l-.029.023a5.092 5.092 0 00-.138.109l-.048.04a3.305 3.305 0 00-.126.11l-.025.022-.008.008q-.072.066-.141.134l-.03.03q-.054.054-.106.11l-.044.047-.089.1-.041.048c-.034.04-.068.082-.1.123l-.021.026c-.039.05-.077.1-.114.153l-.029.042-.079.116-.035.054-.071.115-.03.05a3.31 3.31 0 00-.092.165l-.614 1.155-.5.949a4.9 4.9 0 00-.535 1.747 6.164 6.164 0 01.417-4.509l-1.119 2.105a6.747 6.747 0 00.25 6.268q.1.2.206.391l.015.028q.1.185.215.368l.026.043q.109.177.225.35l.034.051q.115.17.237.338l.02.028.022.029q.108.147.221.291l.035.044q.108.137.221.272l.029.035q.119.142.244.28l.051.057q.124.137.253.272l.038.039q.123.127.25.252l.035.035q.135.131.273.259l.057.053q.139.127.281.252l.04.034q.136.117.275.231l.042.035q.147.12.3.236l.063.048q.151.116.306.229l.04.029q.147.106.3.209l.047.032q.158.107.318.211l.067.043.327.2.038.023q.157.094.316.185l.052.03q.167.094.336.184l.07.037q.171.09.344.176l.036.018q.165.082.332.159l.057.027q.173.08.349.155l.072.031c.119.05.238.1.358.147l.033.013q.172.067.345.13l.06.022q.179.064.359.124l.073.024c.122.04.245.079.368.115l.029.008q.177.052.355.1l.064.017q.182.048.364.091l.074.017c.124.029.249.056.374.081h.023q.181.036.362.067l.066.012q.183.031.366.056l.073.01q.188.025.376.045h.017q.183.019.365.031l.067.005q.182.012.364.019h.071c.125 0 .25.006.374.006h.01c.122 0 .244 0 .366-.007h.068q.179-.007.358-.02l.07-.005c.123-.01.246-.021.368-.035a9.366 9.366 0 001.624-.315q.217-.065.425-.141a7.144 7.144 0 001.509-.749 6.243 6.243 0 00.634-.478q.148-.128.286-.263a5.684 5.684 0 00.508-.57c.039-.05.076-.1.113-.151a5.5 5.5 0 00.4-.638l1.119-2.105a6.167 6.167 0 01-3.5 2.867h.006q.194-.167.368-.349.116-.121.222-.249t.2-.261q.048-.067.094-.135a4.762 4.762 0 00.253-.422l.5-.94.619-1.165c.031-.059.059-.119.088-.179.017-.036.037-.072.053-.108.038-.084.072-.17.105-.257l.016-.04c.021-.058.039-.117.059-.176.014-.044.03-.086.043-.13s.018-.07.027-.1c.019-.07.039-.139.055-.21l.015-.081c.017-.08.034-.16.046-.242.004-.017.004-.028.006-.036zM31.422 18.07l.495-.93.389.867h.12l-.78 1.468c0 .007-.006.014-.009.02l-.018.039v.005c-.022-.019-.044-.037-.065-.057l-.019-.018c-.052-.048-.1-.1-.152-.149-.049-.052-.1-.106-.144-.161l-.019-.023a3.635 3.635 0 01-.13-.165l-.029-.039-.049-.071-.034-.05-.049-.077-.031-.05-.051-.088-.025-.044a2.957 2.957 0 01-.148-.307l.1-.033.036-.01c.089-.025.18-.048.276-.068l.033-.006c.097-.021.198-.04.303-.053zm4.618 6.173l.83-1.562a.469.469 0 00.046-.136l.021.019c.05.046.1.093.146.142l.013.014c.047.05.094.1.139.154l.009.011c.045.053.088.109.13.166l.023.031.046.065.034.049a4.4 4.4 0 01.045.071l.03.047.048.082.024.041.068.128a2.885 2.885 0 01.131.305l.025.071a3.932 3.932 0 01-.7.2l-.5.939-.385-.85c-.075.008-.149.01-.224.013zm2.317 3.088a8.61 8.61 0 01-.4.036l-.128.007c-.092.005-.184.01-.276.012h-.562c-.095 0-.19-.007-.285-.012l-.125-.007q-.2-.013-.409-.034h-.039q-.186-.02-.372-.046l-.135-.02h-.027l.859-.062.741-1.394a1.694 1.694 0 00.586-.613l1.121-2.115.026-.053.015-.03c0-.009.007-.019.011-.028a.938.938 0 00.035-.093 1.37 1.37 0 00.063-.281 1.52 1.52 0 00.009-.249v-.062-.041-.013a1.964 1.964 0 00-.062-.311 2.933 2.933 0 00-.052-.159 2.839 2.839 0 00-.131-.305 2.59 2.59 0 00-.068-.128l-.024-.041c-.016-.028-.031-.055-.048-.082l-.03-.047a4.4 4.4 0 00-.045-.071l-.034-.049-.045-.065-.02-.014-.012-.016a4.328 4.328 0 00-.13-.166l-.009-.011c-.045-.053-.091-.1-.139-.154l-.013-.014a3.2 3.2 0 00-.146-.142l-.024-.022q-.073-.066-.149-.128l-.027-.022c-.051-.041-.1-.081-.156-.119l-.024-.017a4.99 4.99 0 00-.169-.114h-.007l-.1-.06-.054-.031-.067-.039-.122-.066-.062-.033-.154-.076-.032-.016a10.931 10.931 0 00-.19-.085l-.056-.023-.138-.056-.071-.028-.126-.047-.073-.027-.129-.045-.067-.023-.152-.049-.043-.014-.195-.06-.021-.006.736-1.385-.742-1.859a20.9 20.9 0 00-2.221-.1l-.5-1.119-.882.063-.821 1.544-.077.049-.015.01a1.79 1.79 0 00-.179.141l-.013.011c-.022.02-.043.042-.064.063l-.02.02a1.683 1.683 0 00-.055.064l-.02.024a1.189 1.189 0 00-.109.165l-.012.02-.815 1.533-.3.572a1.538 1.538 0 00.092 1.449c.023.047.047.092.072.137l.025.044.051.088.031.05.049.077.034.05.049.071.016.023.012.016c.042.057.085.112.13.165l.019.023c.047.055.095.109.144.161.049.052.1.1.152.149l.019.018c.05.046.1.089.152.132l.027.023q.077.062.156.12l.028.02q.081.059.165.114l.017.01q.084.055.171.105l.012.008c.058.034.117.066.177.1l.028.015q.086.045.174.088l.032.015q.088.042.178.081l.026.011a10.688 10.688 0 00.378.151l.023.008.185.066.032.011h.005l-.775 1.457.75 1.934.023.007h.012l.035.01.023.006.046.013.034.009.057.015.046.011.065.015.057.013.075.016.066.013.085.017.075.013.093.016.084.013.1.015.092.013.11.014.1.011.118.012.107.01.125.01.114.007.132.007h.722l.172-.008.414.914-.21-.034-.152-.028q-.134-.025-.267-.054l-.149-.032a7.696 7.696 0 01-.29-.07l-.119-.03q-.2-.054-.406-.114l-.06-.019q-.172-.053-.344-.109l-.135-.047a4.569 4.569 0 01-.268-.1l-.148-.056-.259-.1-.142-.058q-.143-.06-.285-.124l-.108-.048q-.194-.089-.386-.184l-.072-.037q-.155-.078-.308-.16l-.128-.071-.248-.139-.138-.081q-.121-.071-.239-.145l-.129-.08q-.134-.085-.266-.174l-.091-.06q-.176-.12-.348-.244l-.076-.057a9.604 9.604 0 01-.263-.2l-.116-.092q-.109-.087-.217-.176l-.12-.1q-.105-.09-.209-.182l-.11-.1a12.163 12.163 0 01-.234-.22l-.071-.067q-.149-.146-.292-.3l-.07-.076a11.492 11.492 0 01-.211-.23l-.1-.11q-.089-.1-.175-.206l-.1-.119a11.206 11.206 0 01-.167-.214l-.085-.113c-.05-.067-.1-.135-.145-.2-.035-.05-.071-.1-.1-.149-.048-.071-.093-.142-.139-.214-.03-.047-.062-.094-.091-.142-.049-.08-.1-.161-.143-.242l-.071-.121-.2-.37a7.691 7.691 0 01-.659-1.863 6.3 6.3 0 01-.108-.717 5.623 5.623 0 010-1.033 5.105 5.105 0 01.125-.739l.007-.008.044-.047.106-.11.03-.03q.069-.068.141-.134l.034-.03q.062-.056.126-.11l.048-.04a3.67 3.67 0 01.138-.109l.029-.023q.084-.064.172-.125l.046-.032.138-.091.053-.034c.059-.037.12-.074.181-.109h.007c.064-.037.129-.072.194-.106l.057-.029c.051-.026.1-.052.154-.076l.056-.027q.1-.048.208-.093l.03-.012q.092-.039.187-.075l.065-.025q.087-.032.175-.062l.052-.018c.075-.025.151-.049.228-.072l.052-.015.187-.052.071-.018.207-.049.038-.009q.123-.027.248-.05l.067-.012.2-.032.074-.011c.087-.013.174-.024.263-.035q.174-.02.349-.033l.118-.007c.078-.005.156-.01.234-.013h.706l.157.007.2.01.161.012.2.017.164.018.2.023.165.023.194.03.166.029.194.036.166.034.193.042.165.039.193.048.164.044.193.054.163.048.192.06.162.052.193.067.158.056.195.074.154.059c.1.041.207.083.309.127l.045.02q.136.058.271.12l.092.042q.124.058.247.118l.068.033q.153.076.3.156l.071.038.237.13.088.05q.133.076.265.155l.033.019c.1.059.194.12.29.181l.079.051.219.145.078.053.279.2.03.022c.082.06.164.121.245.183l.079.061q.106.082.209.166l.062.05q.13.107.258.217l.056.049.2.179.073.068.21.2.035.034q.119.117.234.237l.061.065.174.187.063.069q.111.123.217.249l.014.017q.1.119.195.239l.059.076.154.2.047.063q.106.146.207.295l.044.066c.061.092.12.184.178.277l.024.038c.062.1.122.205.181.309l.04.073c.058.106.115.212.168.32a7.285 7.285 0 01.763 2.548v.031c.017.185.022.366.021.546v.149c0 .032 0 .064-.006.1 0 .081-.008.162-.015.241-.005.055-.014.108-.02.162s-.012.113-.021.168-.025.134-.039.2c-.008.041-.014.082-.023.122s-.015.056-.022.085a6.421 6.421 0 01-4.098 1.913z"/><path class="o" d="M25.031 17.494zM41.021 27.911l-.121.046h.006q.194-.167.368-.349.116-.121.222-.249t.2-.261q.048-.067.094-.135a4.762 4.762 0 00.253-.422l.5-.94.619-1.175c.031-.059.059-.119.088-.179.017-.036.037-.072.053-.108.038-.084.072-.17.105-.257l.016-.04c.021-.058.039-.117.059-.176.014-.044.03-.086.043-.13s.018-.07.027-.1c.019-.07.039-.139.055-.21l.015-.081c.017-.08.034-.16.046-.242v-.028c.015-.1.029-.2.038-.3 0-.05.006-.1.009-.152s.01-.123.012-.186v-.095a6.931 6.931 0 00-.788-3.179l-.01-.019-3.357-.838c.051.048.1.1.153.145l.035.034q.119.117.234.237l.061.065.174.187.063.069q.111.123.217.249l.014.017q.1.119.195.239l.059.076.154.2.047.063q.106.146.207.295l.044.066c.061.092.12.184.178.277l.024.038c.062.1.122.205.181.309l.04.073c.058.106.115.212.168.32a7.285 7.285 0 01.763 2.548v.031c.017.185.022.366.021.546v.149c0 .032 0 .064-.006.1 0 .081-.008.162-.015.241-.005.055-.014.108-.02.162s-.012.113-.021.168-.025.134-.039.2c-.008.041-.014.082-.023.122s-.015.056-.022.085a6.421 6.421 0 01-4.112 1.915 8.61 8.61 0 01-.4.036l-.128.007c-.092.005-.184.01-.276.012h-.562c-.095 0-.19-.007-.285-.012l-.125-.007q-.2-.013-.409-.034h-.039q-.186-.02-.372-.046l-.135-.02h-.027l.859-.062.741-1.394a1.694 1.694 0 00.586-.613l1.119-2.105.026-.053.015-.03c0-.009.007-.019.011-.028a.938.938 0 00.035-.093 1.37 1.37 0 00.063-.281 1.52 1.52 0 00.009-.249v-.062-.041-.013a1.964 1.964 0 00-.062-.311 2.933 2.933 0 00-.052-.159 2.839 2.839 0 00-.131-.305 2.59 2.59 0 00-.068-.128l-.024-.041c-.016-.028-.031-.055-.048-.082l-.03-.047a4.4 4.4 0 00-.045-.071l-.031-.06-.045-.065-.011-.015-.012-.016a4.328 4.328 0 00-.13-.166l-.009-.011c-.045-.053-.091-.1-.139-.154l-.013-.014a3.2 3.2 0 00-.146-.142l-.024-.022q-.073-.066-.149-.128l-.027-.022c-.051-.041-.1-.081-.156-.119l-.024-.017a4.99 4.99 0 00-.169-.114h-.007l-.1-.06-.054-.031-.067-.039-.122-.066-.062-.033-.154-.076-.032-.016a10.931 10.931 0 00-.19-.085l-.056-.023-.138-.056-.071-.028-.126-.047-.073-.027-.129-.045-.067-.023-.152-.049-.043-.014-.195-.06-.021-.006.736-1.385-.246-.618-4.746-1.185-.175.328-.077.049-.015.01a1.791 1.791 0 00-.179.141l-.013.011c-.022.02-.043.042-.064.063l-.02.02a1.683 1.683 0 00-.055.064l-.02.024a1.189 1.189 0 00-.109.165l-.012.02-.815 1.533-.3.572a1.538 1.538 0 00.092 1.449c.023.047.047.092.072.137l.025.044.051.088.031.05.049.077.034.05.049.071.016.023.012.016c.042.057.085.112.13.165l.019.023c.047.055.095.109.144.161.049.052.1.1.152.149l.019.018c.05.046.1.089.152.132l.027.023q.077.062.156.12l.028.02q.081.059.165.114l.017.01q.084.055.171.105l.012.008c.058.034.117.066.177.1l.023.01q.086.045.174.088l.032.015q.088.042.178.081l.026.011a10.688 10.688 0 00.378.151l.023.008.185.066.032.011h.005l-.775 1.457.75 1.934.023.007h.012l.035.01.023.006.046.013.034.009.057.015.046.011.065.015.057.013.075.016.066.013.085.017.075.013.093.016.084.013.1.015.092.013.11.014.1.011.118.012.107.01.125.01.114.007.132.007h.722l.172-.008.414.914-.21-.034-.152-.028q-.134-.025-.267-.054l-.149-.032a7.696 7.696 0 01-.29-.07l-.119-.03q-.2-.054-.406-.114l-.06-.019q-.172-.053-.344-.109l-.135-.047a4.569 4.569 0 01-.268-.1l-.148-.056-.259-.1-.142-.058q-.143-.06-.285-.124l-.099-.039q-.194-.089-.386-.184l-.072-.037q-.155-.078-.308-.16l-.128-.071-.248-.139-.138-.081q-.121-.071-.239-.145l-.129-.08q-.134-.085-.266-.174l-.091-.06q-.176-.12-.348-.244l-.076-.057a9.604 9.604 0 01-.263-.2l-.116-.092q-.109-.087-.217-.176l-.12-.1q-.105-.09-.209-.182l-.11-.1a12.163 12.163 0 01-.234-.22l-.071-.067q-.149-.146-.292-.3l-.07-.076a11.492 11.492 0 01-.211-.23l-.1-.11q-.089-.1-.175-.206l-.1-.119a11.206 11.206 0 01-.167-.214l-.085-.113c-.05-.067-.1-.135-.145-.2-.035-.05-.071-.1-.1-.149-.048-.071-.093-.142-.139-.214-.03-.047-.062-.094-.091-.142-.049-.08-.1-.161-.143-.242l-.071-.121-.2-.37a7.691 7.691 0 01-.659-1.863 6.3 6.3 0 01-.108-.717 5.623 5.623 0 010-1.033 5.105 5.105 0 01.125-.739l.007-.008.044-.047.106-.11.03-.03q.069-.068.141-.134l.034-.03q.062-.056.126-.11l.048-.04a3.67 3.67 0 01.138-.109l.029-.023q.084-.064.172-.125l.046-.032.138-.091.053-.034c.059-.037.12-.074.181-.109h.007c.064-.037.129-.072.194-.106l.057-.029c.051-.026.1-.052.154-.076l.056-.027q.1-.048.208-.093h.008l-1.208-.3-.007.009-.029.042-.079.116-.035.054-.071.115-.03.05a3.31 3.31 0 00-.092.165l-.614 1.155-.5.949a4.708 4.708 0 00-.274.619c-.034.1-.067.21-.1.316a5.077 5.077 0 00-.162.812l-.037-.154a53.93 53.93 0 00-.781 3.19q.159.411.365.827.1.2.206.391l.015.028q.1.185.215.368l.026.043q.109.177.225.35l.034.051q.115.17.237.338l.02.028.022.029q.108.147.221.291l.035.044q.108.137.221.272l.029.035q.119.142.244.28l.051.057q.124.137.253.272l.038.039q.123.127.25.252l.035.035q.135.131.273.259l.057.053q.139.127.281.252l.04.034q.136.117.275.231l.042.035q.147.12.3.236l.063.048q.151.116.306.229l.04.029q.147.106.3.209l.047.032q.158.107.318.211l.067.043.327.2.038.023q.157.094.316.185l.052.03q.167.094.336.184l.07.037q.171.09.344.176l.036.018q.165.082.332.159l.057.027q.173.08.349.155l.072.031c.119.05.238.1.358.147l.033.013q.172.067.345.13l.06.022q.179.064.359.124l.073.024c.122.04.245.079.368.115l.029.008q.177.052.355.1l.064.017q.182.048.364.091l.074.017c.124.029.249.056.374.081h.023q.181.036.362.067l.066.012q.183.031.366.056l.073.01q.188.025.376.045h.017q.183.019.365.031l.067.005q.182.012.364.019h.071c.125 0 .25.006.374.006h.01c.122 0 .244 0 .366-.007h.068q.179-.007.358-.02l.07-.005c.123-.01.246-.021.368-.035.1-.012.206-.027.308-.042q1.31-1.025 2.525-2.167.206-.184.411-.383zm-4.105-5.366l.021.019c.05.046.1.093.146.142l.013.014c.047.05.094.1.139.154l.009.011c.045.053.088.109.13.166l.023.031.046.065.034.049a4.4 4.4 0 01.045.071l.03.047.048.082.024.041.068.128a2.885 2.885 0 01.131.305l.025.071a3.931 3.931 0 01-.7.2l-.5.939-.385-.85c-.076 0-.151.007-.225.009l.83-1.562a.469.469 0 00.048-.132zm-5.993-3.819l-.031-.05-.051-.088-.025-.044a2.957 2.957 0 01-.148-.307l.1-.033.036-.01c.089-.025.18-.048.276-.068l.033-.006c.1-.02.2-.037.3-.052l.495-.93.389.867h.12l-.78 1.468c0 .007-.006.014-.009.02l-.018.039v.005c-.022-.019-.044-.037-.065-.057l-.019-.018c-.052-.048-.1-.1-.152-.149-.049-.052-.1-.106-.144-.161l-.019-.023a3.635 3.635 0 01-.13-.165l-.029-.039-.049-.071-.034-.05z"/><path class="p" d="M42.777 18.641l-.04-.073c-.058-.1-.118-.207-.181-.309l-.024-.038a9.253 9.253 0 00-.178-.277l-.044-.066q-.1-.149-.207-.295l-.013-.018-.035-.045q-.075-.1-.154-.2l-.059-.076-.195-.239-.014-.017a12.887 12.887 0 00-.217-.249l-.063-.069q-.086-.094-.174-.187l-.061-.065c-.077-.08-.155-.159-.234-.237l-.036-.034q-.1-.1-.21-.2l-.073-.068-.2-.179-.056-.049q-.127-.11-.258-.217l-.062-.05q-.1-.084-.209-.166l-.079-.061q-.121-.093-.245-.183l-.03-.022-.279-.2-.078-.053q-.109-.074-.219-.145l-.079-.051q-.144-.092-.29-.181l-.033-.019q-.132-.079-.265-.155l-.088-.049q-.118-.066-.237-.13l-.071-.038q-.151-.08-.3-.156l-.068-.033q-.123-.06-.247-.118l-.092-.042q-.135-.062-.271-.12l-.045-.02-.27-.112-.039-.015-.154-.059-.195-.074-.158-.056-.193-.067-.161-.052-.191-.06-.163-.048-.193-.054-.164-.043-.193-.048-.165-.039-.194-.042-.166-.034-.194-.036-.117-.02q-.648 1.033-1.273 2.081l.1.016.166.029.194.036.166.034.193.042.165.039.193.048.164.044.193.054.163.048.192.06.162.052.193.067.158.056.195.074.154.059c.1.041.207.083.309.127l.045.02q.136.058.271.12l.092.042q.124.058.247.118l.068.033q.153.076.3.156l.071.038.237.13.088.05q.133.076.265.155l.033.019c.1.059.194.12.29.181l.079.051.219.145.078.053.279.2.03.022c.082.06.164.121.245.183l.079.061q.106.082.209.166l.062.05q.13.107.258.217l.056.049.2.179.073.068.21.2.035.034q.119.117.234.237l.061.065.174.187.063.069q.111.123.217.249l.014.017q.1.119.195.239l.059.076.154.2.047.063q.106.146.207.295l.044.066c.061.092.12.184.178.277l.024.038c.062.1.122.205.181.309l.04.073c.058.106.115.212.168.32a7.285 7.285 0 01.763 2.548v.031c.017.185.022.366.021.546v.149c0 .032 0 .064-.006.1 0 .081-.008.162-.015.241-.005.055-.014.108-.02.162s-.012.113-.021.168-.025.134-.039.2c-.008.041-.014.082-.023.122s-.015.056-.022.085a6.421 6.421 0 01-4.102 1.908 8.61 8.61 0 01-.4.036l-.128.007c-.092.005-.184.01-.276.012h-.562c-.095 0-.19-.007-.285-.012l-.125-.007q-.2-.013-.409-.034h-.039q-.186-.02-.372-.046l-.135-.02h-.027l.859-.062.741-1.394a1.694 1.694 0 00.586-.613l1.119-2.105.026-.053.015-.03c0-.009.007-.019.011-.028a.938.938 0 00.035-.093 1.37 1.37 0 00.063-.281 1.52 1.52 0 00.009-.249v-.062-.041-.013A1.964 1.964 0 0039 21.93a2.933 2.933 0 00-.052-.159 2.839 2.839 0 00-.131-.305 2.59 2.59 0 00-.068-.128l-.024-.041c-.016-.028-.031-.055-.048-.082l-.03-.047a4.4 4.4 0 00-.045-.071l-.034-.049-.045-.065-.011-.015-.012-.016a4.328 4.328 0 00-.13-.166l-.009-.011c-.045-.053-.091-.1-.139-.154l-.013-.014a3.2 3.2 0 00-.146-.142l-.024-.022q-.073-.066-.149-.128l-.027-.022c-.051-.041-.1-.081-.156-.119l-.024-.017a4.99 4.99 0 00-.169-.114h-.007l-.1-.06-.054-.031-.067-.039-.122-.066-.062-.033-.154-.076-.032-.016a10.931 10.931 0 00-.19-.085l-.056-.023-.138-.056-.071-.028-.126-.047-.073-.027-.129-.045-.067-.023-.156-.059-.043-.014-.195-.06-.021-.006.736-1.385-.742-1.859a20.9 20.9 0 00-2.221-.1l-.5-1.119-.434.031q-1.572 2.646-2.995 5.377a2.526 2.526 0 00.133.323c.023.047.047.092.072.137l.025.044.051.088.031.05.049.077.034.05.049.071.016.023.012.016c.042.057.085.112.13.165l.019.023c.047.055.095.109.144.161.049.052.1.1.152.149l.019.018c.05.046.1.089.152.132l.027.023q.077.062.156.12l.028.02q.081.059.165.114l.017.01q.084.055.171.105l.012.008c.058.034.117.066.177.1l.028.015q.086.045.174.088l.032.015q.088.042.178.081l.026.011a10.688 10.688 0 00.378.151l.023.008.185.066.032.011h.005l-.775 1.457.75 1.934.023.007h.012l.035.01.023.006.046.013.034.009.057.015.046.011.065.015.057.013.075.016.066.013.085.017.075.013.093.016.084.013.1.015.092.013.11.014.1.011.118.012.107.01.125.01.114.007.132.007h.722l.172-.008.414.914-.21-.034-.152-.028q-.134-.025-.267-.054l-.149-.032a7.696 7.696 0 01-.29-.07l-.119-.03q-.2-.054-.406-.114l-.06-.019q-.172-.053-.344-.109l-.135-.047a4.569 4.569 0 01-.268-.1l-.148-.056-.259-.1-.142-.058q-.143-.06-.285-.124l-.108-.048q-.194-.089-.386-.184l-.072-.037q-.155-.078-.308-.16l-.128-.071-.248-.139-.138-.081q-.121-.071-.239-.145l-.129-.08q-.134-.085-.266-.174l-.091-.06q-.176-.12-.348-.244l-.076-.057a9.604 9.604 0 01-.263-.2l-.116-.092q-.109-.087-.217-.176l-.12-.1q-.105-.09-.209-.182l-.11-.1a12.163 12.163 0 01-.234-.22l-.071-.067q-.149-.146-.292-.3l-.07-.076-.1-.106q-.768 1.589-1.485 3.2l.189.18.057.053q.139.127.281.252l.04.034q.136.117.275.231l.042.035q.147.12.3.236l.063.048q.151.116.306.229l.04.029q.147.106.3.209l.047.032q.158.107.318.211l.067.043.327.2.038.023q.157.094.316.185l.052.03q.167.094.336.184l.07.037q.171.09.344.176l.036.018q.165.082.332.159l.057.027q.173.08.349.155l.072.031c.119.05.238.1.358.147l.033.013q.172.067.345.13l.06.022q.179.064.359.124l.073.024c.122.04.245.079.368.115l.029.008q.177.052.355.1l.064.017q.182.048.364.091l.074.017c.124.029.249.056.374.081h.023q.181.036.362.067l.066.012q.183.031.366.056l.073.01q.188.025.376.045h.017q.183.019.365.031l.067.005q.182.012.364.019h.071c.125 0 .25.006.374.006h.01c.122 0 .244 0 .366-.007h.068q.179-.007.358-.02l.07-.005c.123-.01.246-.021.368-.035a9.366 9.366 0 001.632-.331q.217-.065.425-.141a7.144 7.144 0 001.509-.749 6.243 6.243 0 00.634-.478q.148-.128.286-.263a5.684 5.684 0 00.508-.57c.039-.05.076-.1.113-.151a5.5 5.5 0 00.4-.638l1.126-2.085a6.167 6.167 0 01-3.5 2.867h.006q.194-.167.368-.349.116-.121.222-.249t.2-.261q.048-.067.094-.135a4.762 4.762 0 00.253-.422l.5-.94.619-1.165c.031-.059.059-.119.088-.179.017-.036.037-.072.053-.108.038-.084.072-.17.105-.257l.016-.04c.021-.058.039-.117.059-.176.014-.044.03-.086.043-.13s.018-.07.027-.1c.019-.07.039-.139.055-.21l.015-.081c.017-.08.034-.16.046-.242v-.028c.015-.1.029-.2.038-.3 0-.05.006-.1.009-.152s.01-.123.012-.186v-.095a6.931 6.931 0 00-.788-3.179 3.669 3.669 0 00-.166-.332zm-5.861 3.9l.021.019c.05.046.1.093.146.142l.013.014c.047.05.094.1.139.154l.009.011c.045.053.088.109.13.166l.023.031.046.065.034.049a4.4 4.4 0 01.045.071l.03.047.048.082.024.041.068.128a2.885 2.885 0 01.131.305l.025.071a3.931 3.931 0 01-.7.2l-.5.939-.385-.85c-.076 0-.151.007-.225.009l.83-1.562a.469.469 0 00.048-.128zm-5.992-3.812l-.031-.05-.051-.088-.025-.044a2.957 2.957 0 01-.148-.307l.1-.033.036-.01c.089-.025.18-.048.276-.068l.033-.006c.1-.02.2-.037.3-.052l.495-.93.389.867h.12l-.78 1.468c0 .007-.006.014-.009.02l-.018.039v.005c-.022-.019-.044-.037-.065-.057l-.019-.018c-.052-.048-.1-.1-.152-.149-.049-.052-.1-.106-.144-.161l-.019-.023a3.635 3.635 0 01-.13-.165l-.029-.039-.049-.071-.034-.05z"/><path class="q" d="M30.955 12.485a12.725 12.725 0 0111.99 6.471c2.044 4.1-.011 7.845-4.589 8.37a12.723 12.723 0 01-11.988-6.47c-2.044-4.094.011-7.842 4.587-8.371zm6.194 11.655c1.534-.3 2.373-1.257 1.661-2.684-1.345-2.7-5.3-2.09-6.017-3.53-.259-.52.082-.892.772-.971a2.344 2.344 0 011.392.186 1.357 1.357 0 01.094.131l.325.652 1.01-.064-.742-1.859a20.9 20.9 0 00-2.221-.1l-.5-1.119-.882.063.5 1.119c-1.616.223-2.472 1.089-1.8 2.444 1.405 2.818 5.291 2.1 6.088 3.7.3.593-.158.913-.794.986a3.723 3.723 0 01-1.71-.136 2.785 2.785 0 01-.316-.463c-.073-.12-.268-.51-.278-.53l-.99.05.75 1.934a8.337 8.337 0 002.77.284l.418.923.9-.065-.43-.948"/><path class="r" d="M43.405 20.074a31.7 31.7 0 00-5.862-.013 3.542 3.542 0 011.267 1.4c.712 1.427-.128 2.38-1.661 2.684l.43.948-.9.065-.418-.923a8.337 8.337 0 01-2.77-.284l-.75-1.934.99-.05c.01.02.2.411.278.53a2.786 2.786 0 00.316.463 3.724 3.724 0 001.71.136c.635-.073 1.09-.393.794-.986-.529-1.06-2.42-1.1-4.042-1.835a17.7 17.7 0 01-4.266-.5 11.057 11.057 0 01-2.888-1.194 7.451 7.451 0 00.732 2.278 12.723 12.723 0 0011.988 6.47c4.163-.475 6.239-3.612 5.052-7.255z"/><path class="s" d="M32.735 17.779c.093-.248.39-.416.827-.466a2.341 2.341 0 011.392.186 1.322 1.322 0 01.094.131l.325.653 1.01-.064v-.354l-1.01.064-.325-.652a1.357 1.357 0 00-.094-.131 2.344 2.344 0 00-1.392-.186c-.617.07-.953.379-.827.819zM32.39 15.988l.152-.023-.5-1.119v.354zM37.295 24.465c1.138-.265 1.852-.908 1.758-1.848-.1.786-.833 1.315-1.9 1.527z"/><path class="s" d="M30.955 12.485c-3.422.392-5.433 2.587-5.376 5.382.113-2.625 2.1-4.653 5.372-5.028a12.726 12.726 0 0111.99 6.471 7.039 7.039 0 01.794 2.992 6.852 6.852 0 00-.785-3.342 12.725 12.725 0 00-11.995-6.475zM32.74 22.369l.75 1.934a8.334 8.334 0 002.77.284l.418.923.9-.065-.155-.342-.737.053-.418-.923a8.337 8.337 0 01-2.77-.284l-.616-1.587z"/><path class="s" d="M30.522 17.706a1.8 1.8 0 00.219 1.057c1.405 2.818 5.291 2.1 6.088 3.7a.95.95 0 01.063.164.632.632 0 00-.059-.518c-.8-1.6-4.683-.882-6.088-3.7a2.128 2.128 0 01-.223-.703z"/><path class="t" d="M32.04 14.845l.882-.063.5 1.119a20.9 20.9 0 012.221.1l.742 1.859-1.01.064-.325-.652a1.384 1.384 0 00-.094-.131 2.344 2.344 0 00-1.392-.186c-.69.079-1.032.452-.772.971.718 1.44 4.672.833 6.017 3.53.712 1.427-.127 2.38-1.661 2.684l.43.948-.9.065-.418-.923a8.334 8.334 0 01-2.77-.284l-.751-1.934.99-.05c.01.02.2.411.278.53a2.785 2.785 0 00.316.463 3.724 3.724 0 001.71.136c.635-.073 1.09-.393.794-.986-.8-1.6-4.682-.882-6.088-3.7-.676-1.355.18-2.22 1.8-2.444z"/><path class="u" d="M36.786 19.768c-1.473.1-2.961.2-4.438.172a9.717 9.717 0 002.217.833c1.07.3 1.994.567 2.355 1.292a.646.646 0 01-.206.916 1.556 1.556 0 01-.664.211 3.856 3.856 0 01-1.762-.143l-.022-.01-.015-.019a3.3 3.3 0 01-.328-.481 9.46 9.46 0 01-.248-.471l-.791.04.684 1.763a8.386 8.386 0 002.69.266h.067l.418.923.687-.05-.423-.933.121-.024a3.224 3.224 0 001.134-.429 1.477 1.477 0 00.46-2.117 3.74 3.74 0 00-1.921-1.74z"/><g><path class="v" d="M30.417 11.411a14.574 14.574 0 0113.732 7.411c2.341 4.694-.012 8.987-5.255 9.588a14.574 14.574 0 01-13.733-7.411c-2.34-4.694.013-8.987 5.256-9.588zm7.939 15.92c4.578-.525 6.633-4.272 4.589-8.37a12.725 12.725 0 00-11.99-6.471c-4.577.525-6.631 4.273-4.587 8.372a12.723 12.723 0 0011.988 6.47"/><path class="v" d="M42.373 27.13a8.006 8.006 0 01-3.49 1.183 14.489 14.489 0 01-13.634-7.357c-1.639-3.286-.976-6.53 1.689-8.264a8.006 8.006 0 013.49-1.183 14.489 14.489 0 0113.634 7.357c1.639 3.287.976 6.531-1.689 8.264zM27.819 13.454c-2.41 1.568-3.015 4.493-1.539 7.452a12.845 12.845 0 0012.087 6.523 7.176 7.176 0 003.127-1.061c2.41-1.568 3.014-4.492 1.539-7.45a12.848 12.848 0 00-12.089-6.525 7.168 7.168 0 00-3.125 1.061z"/></g><path class="w" d="M44.253 19.275c-.374-.07-.751-.125-1.129-.168 1.357 2.893.729 5.726-1.63 7.26a7.176 7.176 0 01-3.127 1.061 12.845 12.845 0 01-12.087-6.523 7.02 7.02 0 01-.8-3.278 9.594 9.594 0 01-1.1-.758 7.6 7.6 0 00.861 4.086 14.489 14.489 0 0013.634 7.357 8.006 8.006 0 003.49-1.183c2.563-1.661 3.276-4.705 1.888-7.854z"/></g><g><path class="x" d="M81.88 8.947h.007l.032.02c.018.01.043.023.071.036l.012.006.043.019.828.345-.073.407 1.325.553.386-.038.116-.648c.057-.015.113-.035.168-.056l.046-.018c.045-.019.09-.039.134-.061l.032-.016q.079-.042.155-.091l.037-.025q.06-.041.118-.087l.025-.018.017-.015c.024-.02.048-.041.071-.063l.035-.031.013-.013.034-.035.041-.042.025-.029.025-.028.02-.024q.031-.037.06-.075l.007-.01.041-.057.041-.062.042-.069.035-.062.037-.071.034-.072.034-.077.029-.073v-.006l.031-.088.016-.052.009-.029.007-.021q.017-.059.031-.121v-.01c0-.016.006-.033.01-.049.007-.032.014-.063.019-.1l.007-.044c.01-.065.017-.126.021-.186v-.015-.09-.035-.133-.031c0-.032 0-.063-.008-.093 0-.014 0-.028-.006-.042s0-.033-.007-.049 0-.011 0-.016a1.3 1.3 0 00-.033-.131 1.045 1.045 0 00-.08-.189v-.008a1.64 1.64 0 00-.041-.071l-.02-.029-.028-.041-.005-.006-.032-.038-.024-.029V6.61q-.032-.035-.066-.068c-.027-.026-.056-.05-.084-.074l-.009-.008-.012-.009q-.06-.048-.122-.09l-.008-.005c-.074-.05-.149-.1-.223-.141s-.144-.087-.209-.131l-.017-.011a1.207 1.207 0 01-.089-.066l-.017-.014-.042-.037-.033-.033-.013-.013a.612.612 0 01-.04-.049l-.007-.009a.668.668 0 01-.029-.044l-.007-.011a.555.555 0 01-.026-.055V5.73c0-.013-.009-.027-.013-.041l-.01-.045c-.003-.015 0-.02 0-.031a.621.621 0 01-.005-.1.751.751 0 01.008-.086.848.848 0 01.029-.126.836.836 0 01.045-.114.822.822 0 01.061-.1l.009-.011.908.379.432-.037.269-1.271-.827-.345.092-.506-1.325-.553-.379.037-.14.765a1.83 1.83 0 00-.19.049l-.041.013a1.8 1.8 0 00-.178.07l-.027.013a1.744 1.744 0 00-.154.084l-.031.019a1.755 1.755 0 00-.157.113l-.014.01-.033.029-.056.05-.019.017-.045.046-.024.025-.008.008a2.1 2.1 0 00-.062.071l-.013.016-.014.017-.024.03-.045.062-.007.011-.008.013-.025.037-.037.059-.009.017-.008.014-.017.03-.032.062-.014.028-.007.015-.01.021-.029.067-.015.039-.007.017-.007.018-.028.079c0 .012-.007.024-.011.036l-.008.026-.009.029q-.015.054-.028.11v.006c0 .01 0 .021-.006.032a5.89 5.89 0 00-.02.1l-.006.04c-.01.067-.017.131-.022.193v.343c0 .008 0 .044.006.065v.047c0 .026.007.052.012.077v.008a1.4 1.4 0 00.034.137v.008c0 .003.01.026.014.039l.021.058v.01c.006.015.013.028.02.042l.02.041v.008l.029.05.015.026c.012.019.026.038.039.056l.013.019.034.041.026.031.006.006c.021.023.042.045.065.067l.005.005.014.012q.034.032.07.061l.012.011.009.007c.042.034.085.065.129.1l.008.006.009.006c.062.042.124.081.185.12l.16.1.039.026.065.048.044.034.024.021a.705.705 0 01.062.06l.008.008a.68.68 0 01.063.08v.006a.591.591 0 01.051.095.579.579 0 01.028.092c0 .009 0 .018.007.028s0 .035.005.052a.717.717 0 010 .091.9.9 0 01-.009.116.943.943 0 01-.033.141.806.806 0 01-.05.123.763.763 0 01-.041.067l-1.094-.456-.419.028-.289 1.322zm1.386.353l-.025-.011.139-.636.469.2-.011.008a1.7 1.7 0 01-.155.091l-.032.016a2.298 2.298 0 01-.134.061l-.046.018c-.055.021-.112.04-.168.056zm1.562-5.106l.027-.013a1.8 1.8 0 01.178-.07l.041-.013-.074.347-.357-.149.029-.018c.052-.03.103-.059.156-.084zm-.134 3.287h-.006.006l-.125-.079a5.793 5.793 0 01-.186-.12l-.017-.012a1.178 1.178 0 01-.129-.1l-.022-.018a2.037 2.037 0 01-.07-.061l-.019-.018a1.377 1.377 0 01-.065-.067l-.007-.007-.026-.031-.035-.042-.013-.019a1.237 1.237 0 01-.041-.059l-.015-.026-.033-.057c-.011-.019-.013-.028-.02-.041s-.016-.034-.023-.052l-.021-.058-.017-.047a1.341 1.341 0 01-.034-.137 1.886 1.886 0 01-.014-.085c0-.011 0-.022-.005-.034s0-.009 0-.013c0-.029-.005-.059-.007-.09s0-.037 0-.056v-.07-.061-.075-.056a2.932 2.932 0 01.049-.336l.006-.032v-.009c.057.037.118.074.18.111s.149.091.223.141l.013.009c.041.028.082.058.121.09l.02.016c.029.024.057.048.085.074.022.022.045.044.066.068l.029.034a1.035 1.035 0 01.065.085l.02.029c.015.024.03.049.044.075v.008a1.093 1.093 0 01.081.191 1.267 1.267 0 01.033.131c0 .021.008.043.012.066s0 .028.006.042c0 .03.006.061.008.092v.199c0 .034 0 .069-.006.1a2.67 2.67 0 01-.048.324c0 .017-.006.033-.01.05l-.013.052-.023-.015z"/><path class="y" d="M88.524 2.177c-.023-.036-.049-.07-.073-.1s-.036-.054-.055-.08l-.021-.03q-.074-.1-.154-.188v-.005a2.59 2.59 0 00-.154-.16l-.033-.029-.058-.051-.074-.066c-.025-.021-.054-.04-.081-.061l-.058-.044-.033-.024q-.088-.061-.18-.113h-.007l-.026-.013c-.052-.028-.1-.056-.157-.081l-.082-.036-1.325-.553a2.491 2.491 0 01.24.117l.026.013a2.545 2.545 0 01.219.141l.058.044q.079.06.155.126l.058.051c.064.06.127.122.186.189v.005c.061.069.119.142.175.218l.055.08c.036.052.072.106.106.162l.065.112a4.539 4.539 0 01.142.281l-.042-.031-.028-.021q-.077-.053-.157-.1h-.006l-.023-.012a1.765 1.765 0 00-.137-.07l-.072-.032-1.325-.553a2.147 2.147 0 00-.294-.1 2.429 2.429 0 00-.994-.036 2.76 2.76 0 00-.264.056l-.084.024c-.06.017-.12.035-.18.056l-.1.036c-.056.022-.113.044-.169.069l-.1.043a4.882 4.882 0 00-.177.089l-.081.043c-.085.048-.169.1-.253.152l-.009.006a4.72 4.72 0 00-.24.168l-.079.061c-.038.03-.077.058-.115.089l-.034.03c-.1.087-.209.178-.31.275l-.008.008-.024.025q-.111.108-.218.223l-.031.032-.05.057q-.068.075-.133.153l-.046.053-.04.05q-.054.067-.107.136l-.054.068-.035.048-.091.125-.056.077-.035.052-.078.117-.052.078-.039.063-.07.113-.043.071-.046.08-.064.113-.033.058-.053.1a2.223 2.223 0 00-.057.11l-.022.043-.062.13a4.18 4.18 0 00-.05.105l-.013.028a4.769 4.769 0 00-.071.164c-.014.032-.028.063-.042.1l-.006.014a8.83 8.83 0 00-.089.226l-.022.056c-.034.091-.065.182-.1.274l-.01.03q-.053.16-.1.323v.009c-.006.02-.01.041-.015.061a6.85 6.85 0 00-.072.282l-.009.034-.013.067q-.035.158-.063.317c0 .022-.009.045-.013.067a6.743 6.743 0 00-.057.408c0 .03-.006.06-.009.091s-.01.09-.013.134v.037a6.6 6.6 0 00-.018.365V8.156q.008.145.023.284a5.23 5.23 0 00.053.377v.028c0 .025.011.049.016.075l.033.153c.011.053.018.072.028.107s.026.1.041.142l.014.051.014.037c.034.1.07.2.11.3v.009c.034.079.071.155.109.229 0 .009.008.018.012.026l.029.05c.024.044.049.088.075.13l.023.039.028.041c.023.034.046.068.07.1l.031.045.028.034c.022.029.046.057.069.084l.037.046.029.03.028.031.033.032c.011.011.032.035.049.051l.058.051.056.05.03.027c.034.028.07.053.105.079l.036.027.009.007c.051.035.1.068.157.1l.015.008.05.026c.033.017.066.036.1.052l.072.032 1.325.553a2.184 2.184 0 00.525.14l-.068.026-.087.028a3.412 3.412 0 01-.173.049l-.078.02c-.083.02-.166.037-.249.05a2.684 2.684 0 01-1.477-.154l1.325.553a2.685 2.685 0 001.477.154c.083-.013.166-.031.249-.05l.078-.02c.058-.015.116-.031.173-.05l.086-.028q.086-.03.172-.063l.077-.03c.08-.033.16-.069.239-.107.081-.04.161-.083.242-.128l.075-.044q.084-.049.166-.1l.083-.054a4.32 4.32 0 00.163-.113l.074-.053q.111-.082.22-.17l.009-.007q.1-.083.2-.172l.059-.054c.047-.042.093-.085.139-.129l.007-.006.016-.016q.136-.132.267-.274l.03-.031.018-.021q.117-.129.231-.265l.014-.016.038-.048.159-.2.034-.043.032-.044q.068-.091.133-.184l.042-.058.017-.025q.074-.107.145-.218l.027-.04v-.006c.056-.087.11-.176.164-.266l.007-.012.04-.07c.036-.063.073-.126.108-.191l.015-.027.042-.081.088-.17.022-.042.036-.075.081-.17.027-.057.028-.063.078-.178.031-.071.019-.048c.027-.066.053-.132.078-.2l.031-.08.01-.028c.039-.106.077-.213.112-.321.037-.114.072-.228.1-.344l.012-.038c.005-.019.009-.039.015-.058q.044-.159.082-.319c0-.019.01-.037.014-.055s0-.014 0-.021c.034-.15.064-.3.09-.452 0-.015.006-.03.009-.045l.023-.142c.021-.137.037-.272.051-.406q0-.046.009-.092c0-.028.006-.057.009-.086 0-.047 0-.092.007-.138.005-.087.011-.174.013-.259v-.2-.246c0-.064-.006-.127-.009-.19q-.007-.118-.019-.234-.009-.092-.021-.182a4.963 4.963 0 00-.034-.223c-.006-.034-.009-.07-.016-.1l-.018-.084a5.032 5.032 0 00-.117-.463l-.017-.058c-.006-.019-.023-.059-.033-.089a5.2 5.2 0 00-.085-.23c-.009-.022-.015-.045-.025-.066l-.038-.079a3.505 3.505 0 00-.073-.152c-.012-.023-.022-.049-.034-.072s-.032-.054-.047-.082-.043-.076-.065-.112c.009-.016-.002-.036-.013-.054zm-6.292 9.126l-.012-.01q-.055-.049-.107-.1l-.061-.064-.066-.076-.069-.084c-.023-.028-.04-.052-.059-.079l-.07-.1-.052-.081a3.857 3.857 0 01-.226-.436v-.011a5.18 5.18 0 01-.11-.3l-.028-.088-.041-.142-.028-.107a3.113 3.113 0 01-.033-.153l-.021-.1a4.801 4.801 0 01-.048-.32c0-.019 0-.038-.006-.057q-.015-.14-.023-.284v-.1c0-.1-.006-.207 0-.313v-.044c0-.12.009-.242.018-.365q.006-.085.015-.172c0-.03.006-.06.009-.091.011-.094.023-.189.037-.284.01-.064.022-.127.033-.191q.028-.159.063-.317l.022-.1c.022-.095.047-.189.072-.282l.018-.07a6.73 6.73 0 01.1-.323l.011-.03c.031-.093.063-.186.1-.278l.022-.055c.031-.081.062-.161.1-.24l.041-.094c.028-.065.056-.129.085-.192l.05-.105c.028-.058.055-.116.084-.173l.057-.11.086-.16.064-.113.089-.151.07-.113.091-.141.078-.117.091-.13.09-.125.089-.116.107-.136.086-.1q.066-.078.133-.153l.081-.089c.071-.077.144-.151.218-.223l.029-.029c.1-.1.21-.193.318-.282q.074-.061.149-.119l.079-.061a4.72 4.72 0 01.24-.168l.009-.006c.084-.054.168-.1.253-.152l.08-.042c.059-.031.118-.062.178-.09l.1-.043q.084-.037.169-.069l.1-.035c.06-.021.12-.039.18-.056l.084-.024c.088-.022.176-.042.264-.056a2.571 2.571 0 01.583-.025l.041.036c.056.052.11.106.162.165.053.06.1.124.153.191l.049.07a2.621 2.621 0 01.149.241c.019.035.048.088.071.134s.043.088.063.133a3.209 3.209 0 01.128.327c.014.042.03.084.043.128l.03.106a4.888 4.888 0 01.072.298l.03.164c.01.055.021.129.029.2l.018.159a7.149 7.149 0 01.024.366c.002.056 0 .142 0 .215v.171c0 .075-.007.15-.011.226s-.007.129-.013.194c0 .027-.005.054-.008.081a7.597 7.597 0 01-.044.354l-.027.163a7.662 7.662 0 01-.079.395l-.016.066q-.033.141-.072.279l-.023.083a5.477 5.477 0 01-.191.58l-.036.093a12.49 12.49 0 01-.111.274c-.022.052-.045.1-.068.156l-.047.1-.071.149-.05.1-.078.15-.049.092a2.063 2.063 0 01-.1.168l-.04.07a7.61 7.61 0 01-.143.233l-.024.036q-.064.1-.129.194l-.05.071-.117.162-.058.076q-.068.089-.139.175l-.045.056q-.1.119-.2.231l-.042.045a6.608 6.608 0 01-.233.239l-.018.018c-.115.11-.232.215-.352.312l-.008.006-.193.149-.064.046-.143.1-.072.047q-.073.046-.146.089l-.065.038c-.07.039-.14.077-.211.112h-.006a3.764 3.764 0 01-.207.093l-.067.026c-.05.02-.1.038-.15.055l-.076.025q-.076.024-.151.043l-.068.018a3.336 3.336 0 01-.217.044 2.576 2.576 0 01-.599.028z"/><path class="z" d="M87.599 1.977l.009.02-.279.225-.065-.048c-.047-.032-.1-.062-.152-.094l-.018-.009a1.638 1.638 0 00-.125-.064l-.066-.029-.135-.056.009.012.052.075c.034.049.067.1.1.15l.061.1c.02.031.051.094.076.142s.045.093.067.14.038.088.057.134c.028.068.053.139.078.21l.01.029.035.1c.011.031.017.059.025.089l.006.022a4.884 4.884 0 01.172 1.057c0 .056.007.113.008.171v.397c0 .077-.007.155-.012.234v.055c0 .048-.006.1-.01.144l-.008.084a8.165 8.165 0 01-.069.507v.023c-.024.135-.05.27-.081.4l-.016.067c-.023.1-.047.191-.077.3l-.019.07c-.028.1-.058.2-.09.3v.018l-.006.011c-.03.091-.062.181-.095.27l-.036.1-.07.178-.045.106-.069.16-.048.106-.073.152-.051.1c-.026.052-.053.1-.08.153l-.05.095a3.332 3.332 0 01-.1.172l-.041.071c-.048.081-.1.16-.147.238l-.024.037c-.043.067-.087.133-.132.2l-.052.074a7.77 7.77 0 01-.12.164l-.06.079a5.072 5.072 0 01-.142.179l-.047.057c-.068.081-.137.16-.208.238l-.042.046a7.005 7.005 0 01-.24.246l-.018.018a5.844 5.844 0 01-.371.329c-.066.054-.132.1-.2.155l-.147.1-.067.046-.075.049c-.05.032-.1.063-.152.093l-.067.039c-.073.041-.147.081-.227.12s-.144.067-.218.1l-.07.027a2.542 2.542 0 01-.159.058l-.079.026a3.205 3.205 0 01-.16.046l-.072.019a3.781 3.781 0 01-.231.047l-.057.009.135.056a2.019 2.019 0 00.48.128l.037.357-.091.034-.025.008c.311.1.624.193.938.28l.046-.012c.055-.014.11-.03.165-.047l.082-.027a3.63 3.63 0 00.164-.061l.073-.028c.077-.032.153-.066.234-.105s.155-.08.231-.122l.073-.043c.054-.031.107-.064.16-.1l.081-.053.073-.049.156-.111c.072-.053.143-.108.223-.173s.131-.109.2-.167l.07-.065a9.87 9.87 0 00.128-.118l.016-.017c.089-.086.175-.175.26-.266l.048-.052q.115-.126.226-.258l.014-.016.037-.047q.079-.1.155-.2l.033-.042.031-.043c.044-.059.088-.119.131-.181l.057-.08q.072-.1.142-.214l.029-.044a7.64 7.64 0 00.167-.272l.038-.068c.036-.062.072-.124.106-.186l.016-.028.041-.078c.029-.055.059-.11.087-.166l.012-.024.044-.09.08-.166.026-.056.027-.062.076-.175.03-.07.018-.047c.026-.064.052-.13.076-.195l.031-.078.009-.028q.056-.15.107-.3V7.48l.006-.011q.052-.159.1-.322l.011-.036.014-.057c.028-.1.055-.208.08-.313l.008-.031.01-.044a9.82 9.82 0 00.088-.441l.009-.045a7.8 7.8 0 00.072-.539l.017-.173v-.135c.005-.085.01-.17.013-.252V4.89v-.239c0-.062-.005-.124-.009-.185 0-.077-.011-.152-.018-.227l-.02-.177a5.075 5.075 0 00-.033-.216l-.008-.052c0-.017 0-.033-.007-.049l-.045-.207a3.225 3.225 0 00-.052-.2l-.049-.173c0-.013-.009-.026-.014-.039l-.017-.046a4.365 4.365 0 00-.081-.22l-.023-.063-.036-.076a2.439 2.439 0 00-.069-.145l-.032-.068-.046-.078a3.26 3.26 0 00-.058-.1c-.269-.12-.538-.241-.809-.353z"/><path class="aa" d="M88.185 8.518l.026-.056.027-.062.076-.175.03-.07.018-.047.076-.195.031-.078.009-.028q.056-.15.107-.3v-.018l.006-.011q.052-.159.1-.322l.011-.036.014-.057c.028-.1.055-.208.08-.313l.008-.031.01-.044c.033-.146.062-.294.088-.441l.009-.045a7.8 7.8 0 00.072-.539L89 5.477v-.135c.005-.085.01-.17.013-.253v-.191-.239c0-.062-.005-.124-.009-.185 0-.077-.011-.152-.018-.227l-.02-.177a5.075 5.075 0 00-.033-.216l-.008-.052c0-.017 0-.033-.007-.049l-.032-.148q-.78-.285-1.571-.539l.012.041.006.022a4.884 4.884 0 01.137.681c.009.066.013.109.019.164s.012.14.017.212c0 .056.007.113.008.17v.397c0 .077-.007.155-.012.234v.055c0 .048-.006.1-.01.144l-.008.084a8.165 8.165 0 01-.069.507V5.8c-.024.135-.05.27-.081.4l-.016.067c-.023.1-.047.191-.077.3l-.019.07c-.028.1-.058.2-.09.3v.018l-.006.011c-.03.091-.062.181-.095.27l-.036.1-.07.178-.045.106-.069.16-.048.106-.073.152-.051.1c-.026.052-.053.1-.08.153l-.05.095a3.332 3.332 0 01-.1.172l-.041.071c-.048.081-.1.16-.147.238l-.024.037c-.043.067-.087.133-.132.2l-.052.074a7.77 7.77 0 01-.12.164l-.06.079c-.046.061-.094.12-.142.179l-.047.057c-.04.048-.082.094-.123.141q.826.214 1.663.384l.018-.023.031-.043c.044-.059.088-.119.131-.181l.057-.08q.072-.1.142-.214l.029-.044a7.64 7.64 0 00.167-.272l.039-.068c.036-.062.072-.124.106-.186l.016-.028.041-.078c.029-.055.059-.11.087-.166l.012-.024.044-.09c.028-.056.055-.111.081-.167z"/><path d="M84.078 2.731l.379-.037-.139.766a4.543 4.543 0 01.874.086l-.269 1.271-.432.037.068-.448a.826.826 0 000-.089c-.1-.13-.241-.18-.511-.136a.757.757 0 00-.614.656c-.15.986 1.65.6 1.369 2.446a2.143 2.143 0 01-1.5 1.816l-.116.648-.385.038.113-.632a1.639 1.639 0 01-1.043-.213l.289-1.322.419-.028c0 .014-.043.282-.05.364a1.848 1.848 0 00-.014.318.765.765 0 00.656.1.757.757 0 00.627-.666c.166-1.093-1.639-.634-1.345-2.563a1.884 1.884 0 011.484-1.652z" fill="#e9a900"/><path d="M84.359 1.119c2.029-.325 3.328 1.685 2.9 4.491s-2.418 5.343-4.447 5.668-3.327-1.685-2.9-4.49 2.419-5.344 4.447-5.669zm-1.058 7.98a2.143 2.143 0 001.5-1.816c.281-1.846-1.519-1.461-1.369-2.446a.757.757 0 01.614-.656c.269-.043.413.007.511.136a.825.825 0 010 .089l-.068.448.432-.037.269-1.271a4.531 4.531 0 00-.874-.086l.139-.766-.379.037-.14.765a1.884 1.884 0 00-1.484 1.652c-.294 1.93 1.512 1.47 1.345 2.563a.757.757 0 01-.627.666.765.765 0 01-.656-.1 1.845 1.845 0 01.014-.318c.007-.082.048-.35.05-.364l-.419.028-.289 1.322a1.639 1.639 0 001.043.213l-.113.632.385-.038.116-.648" fill="#d27814"/><path class="ad" d="M81.983 8.428l.177-.809.419-.028c0 .014-.043.282-.05.364a1.847 1.847 0 00-.014.318.766.766 0 00.656.1.757.757 0 00.627-.666c.166-1.093-1.639-.634-1.345-2.563a1.884 1.884 0 011.484-1.652l.069-.379q-.646-.625-1.278-1.269a7.783 7.783 0 00-2.816 4.94l-.015.111q1.037.778 2.086 1.533z"/><path class="ad" d="M87.195 5.977q-1.088-.895-2.125-1.855l-.147.695-.432.037.068-.448a.828.828 0 000-.089c-.1-.13-.241-.18-.511-.136a.757.757 0 00-.614.656c-.15.986 1.65.6 1.369 2.446a2.143 2.143 0 01-1.5 1.816l-.043.237q.721.507 1.449 1.005a7.869 7.869 0 002.486-4.364zM84.325 3.423l-.007.038h.047z"/><g><path class="ae" d="M85.449 3.593c-.083-.014-.17-.028-.259-.041l-.268 1.265-.164.014-.011.07.432-.037zM84.307 4.228a1.158 1.158 0 01.135-.013.61.61 0 00-.393-.034.757.757 0 00-.614.656c-.15.986 1.65.6 1.369 2.446a2.143 2.143 0 01-1.5 1.816l-.116.648-.115.011-.013.074.386-.038.116-.648a2.143 2.143 0 001.5-1.816c.281-1.846-1.519-1.461-1.369-2.446a.757.757 0 01.614-.656zM82.904 9.204l.009-.051a2.157 2.157 0 01-.408-.007 1.881 1.881 0 00.399.058z"/><path class="ae" d="M80.171 6.835c.427-2.805 2.418-5.343 4.446-5.668a2.536 2.536 0 01.707-.017 2.44 2.44 0 00-.964-.03c-2.028.325-4.019 2.863-4.446 5.669-.375 2.463.582 4.313 2.194 4.507-1.456-.352-2.292-2.132-1.937-4.461z"/><path class="ae" d="M82.529 7.955a1.848 1.848 0 00-.014.318.592.592 0 00.389.122.386.386 0 01-.132-.075 1.844 1.844 0 01.014-.318c.007-.082.048-.35.05-.364l-.267.018c-.013.088-.036.24-.04.299zM84.317 3.46c.088 0 .176 0 .265.007l.132-.726-.271.026z"/></g><path d="M84.472.381c2.324-.373 3.812 1.93 3.323 5.143s-2.769 6.12-5.093 6.493-3.812-1.93-3.323-5.143S82.148.753 84.472.381zm-1.658 10.9c2.029-.325 4.02-2.863 4.447-5.668s-.872-4.816-2.9-4.491-4.019 2.863-4.446 5.669.872 4.815 2.9 4.49" fill="#e8a305"/><g><path d="M84.042 4.182l-.7-.456a1.961 1.961 0 00-.893 1.421c-.285 1.871 1.4 1.5 1.355 2.467l.694.538a2.445 2.445 0 00.3-.87c.281-1.846-1.519-1.461-1.369-2.446a.757.757 0 01.613-.654z" fill="#e39607"/><path class="ah" d="M84.542 4.511l-.052.342.432-.037.011-.05zM83.606 8.417l-.2-.122a.741.741 0 01-.235.082.766.766 0 01-.656-.1 1.848 1.848 0 01.014-.318c0-.049.02-.165.033-.253l-.125-.1-.278.018-.151.691 1.266.938.027-.149a1.944 1.944 0 00.768-.418c-.154-.093-.308-.179-.463-.269z"/></g><g><path class="ai" d="M87.514 4.996q-.019.315-.068.642a7.905 7.905 0 01-3.017 5.153 4.694 4.694 0 01-.489.295l.207.164c.059-.038.119-.076.178-.117a8.644 8.644 0 003.289-5.636q.026-.169.044-.336zM79.731 6.76a7.909 7.909 0 013.018-5.154 4.017 4.017 0 011.36-.625l-.214-.26a4.51 4.51 0 00-1.043.545 8.644 8.644 0 00-3.289 5.636 7.579 7.579 0 00-.057.487l.152.135a7.1 7.1 0 01.073-.764z"/></g></g><g><path class="n" d="M30.653 57.172l.066.019.04.008.061.01h.228a.752.752 0 00.09-.019l2.047-.575a.755.755 0 01-.09.019h-.228l-.061-.01-.039-.008c-.022-.005-.044-.012-.066-.019l-.036-.011a.943.943 0 01-.083-.032l-.022-.009q-.053-.023-.108-.053l-.023-.013a2.664 2.664 0 01-.085-.05l-.036-.023-.076-.052-.036-.026-.092-.071-.021-.017-.023-.02q-.061-.052-.124-.11l-.048-.046-.046-.046 1.092-.306a.673.673 0 00.093-.035l.027-.014a.7.7 0 00.064-.037l.028-.019a.8.8 0 00.068-.055l.015-.013a.946.946 0 00.078-.083l.02-.025a.827.827 0 00.054-.074l.023-.035a1.39 1.39 0 00.05-.086l.017-.031.006-.011.015-.034a2.54 2.54 0 00.056-.127l.024-.063c.016-.043.03-.087.045-.133 0-.014.009-.026.014-.041s.005-.022.008-.032c.009-.031.017-.063.025-.1s.016-.063.023-.1l.021-.1.014-.068c.007-.031 0-.026.006-.039 0-.029.009-.058.014-.088l.018-.127c.006-.043.008-.063.011-.1s0-.04.007-.06 0-.054.007-.081 0-.058.007-.088c0-.054.007-.109.01-.165v-.079-.022q0-.114.005-.233v-.019-.22-.055q0-.119-.007-.24v-.081c0-.048 0-.1-.007-.144v-.01l-.018-.244v-.03q-.011-.138-.026-.279v-.013c0-.017 0-.035-.006-.052l-.028-.246-.013-.1-.03-.221c0-.021-.006-.042-.009-.063s0-.02 0-.029q-.03-.2-.066-.4l-.014-.077a21.649 21.649 0 00-.079-.416v-.008l-.008-.038-.064-.3-.022-.1-.067-.286-.015-.063q-.042-.171-.088-.342l-.023-.086-.074-.268-.027-.094-.017-.058a12.994 12.994 0 00-.064-.211l-.027-.09q-.054-.176-.112-.35l-.026-.078-.091-.268-.043-.12-.081-.222-.022-.06-.021-.053a13.03 13.03 0 00-.142-.363l-.014-.035q-.078-.193-.16-.38l-.018-.043-.032-.071-.079-.176-.057-.124-.083-.172-.037-.077-.023-.045-.063-.125-.069-.134-.064-.12-.043-.08-.03-.052-.055-.1-.078-.134-.056-.093-.031-.052-.051-.081-.052-.081-.09-.136-.045-.067-.011-.016a6.632 6.632 0 00-.25-.337l-.006-.007-.031-.038-.088-.107-.047-.053-.077-.085-.019-.021-.026-.026q-.046-.048-.092-.092l-.042-.04-.108-.1-.016-.014-.018-.014a1.941 1.941 0 00-.08-.062l-.032-.023-.067-.046-.031-.02-.074-.044-.02-.011H30.1c-.03-.016-.06-.03-.089-.043l-.019-.008a1.092 1.092 0 00-.073-.028l-.032-.01-.058-.016-.034-.007-.054-.009H29.542a.658.658 0 00-.078.017l-.508.143-.586.164v-.014a3.53 3.53 0 01.079-.276v-.009c.019-.055.039-.107.059-.157l.013-.033q.032-.075.066-.142l.02-.036a3.26 3.26 0 01.058-.1l.026-.04c.02-.03.041-.058.062-.085l.023-.029a1.1 1.1 0 01.089-.095l.018-.015a.95.95 0 01.078-.063l.032-.021a.789.789 0 01.073-.042l.031-.016a.745.745 0 01.107-.04l-2.047.575a.758.758 0 00-.107.04l-.031.016a.844.844 0 00-.073.042l-.032.021a.942.942 0 00-.078.063l-.018.015a1.1 1.1 0 00-.089.1l-.023.029q-.032.04-.062.085l-.026.04c-.02.031-.039.064-.057.1l-.02.036-.007.013c-.021.041-.04.084-.059.129l-.014.033c-.021.05-.04.1-.059.157v.009a3.918 3.918 0 00-.041.129c0 .012-.006.025-.01.037-.01.035-.019.073-.028.11l-.026.111-.024.119-.016.078c-.005.027 0 .031-.007.045l-.016.1a11.306 11.306 0 00-.033.255l-.008.069c-.002.024 0 .062-.007.092s-.006.066-.008.1c0 .061-.008.125-.011.188v.118q0 .13-.006.266v.337c0 .1.005.191.009.289v.095c0 .05 0 .1.007.148v.046c0 .058.008.116.013.175l.012.151.017.18c0 .039.007.077.011.117v.032q.017.157.037.316c0 .016 0 .031.006.047q.023.183.051.368v.022c0 .007.006.033.008.049q.032.21.069.423l.016.094q.042.233.089.468l.007.035.018.082.061.286.03.132q.035.154.073.308l.023.1.1.4.025.092.086.31.038.131.084.282.037.122q.058.187.119.372l.007.02q.064.195.132.386l.041.115q.049.137.1.272l.025.068.018.047q.085.225.174.445l.025.06q.082.2.167.4l.022.053.015.033q.063.143.127.282l.023.051q.076.164.154.322l.01.02.051.1.083.164.065.123c.021.041.055.1.083.155l.019.034.058.1.067.118c.026.046.053.09.08.134l.067.112.015.025.072.114.059.094c.032.05.065.1.1.145l.051.076.005.008.144.2c.048.064.095.126.142.185l.006.008.035.043.1.123.053.06.088.1.022.024.029.03q.053.055.105.106l.048.046q.062.058.124.11l.019.017.02.017c.031.025.061.049.092.071l.036.026.076.052.036.023.085.05.023.013h.006l.1.05.022.009c.028.012.056.023.083.032zm-1.862-12.566c.029.034.059.07.088.107l.037.045.124.161c.042.056.091.126.137.191l.045.067c.03.045.061.09.091.137l.052.081.082.132.056.093.078.134.055.1.073.132.065.12.069.133.021.042-.818.23v.091l-.436.122c0-.036-.006-.071-.008-.107 0-.051-.008-.1-.011-.153l-.009-.169v-.083c0-.085-.006-.169-.008-.252s0-.185 0-.275v-.019c0-.088 0-.172.007-.255v-.079c0-.056.006-.111.01-.165 0-.03 0-.059.007-.088q.006-.072.014-.141c0-.032.007-.063.011-.095s.011-.086.018-.128l.014-.087.02-.108.008-.039.067.074zm2.861 10.473l-.068-.075-.046-.053c-.03-.034-.059-.071-.089-.107l-.036-.044a6.178 6.178 0 01-.255-.345l-.044-.065a7.106 7.106 0 01-.086-.128l-.051-.08-.077-.122-.058-.1-.07-.117-.058-.1-.067-.12-.073-.135-.01-.018.794-.223v-.079l.378-.106v.055c0 .054.006.108.009.162v.08c0 .081.006.161.007.239V53.892c0 .088 0 .172-.007.255v.079c0 .056-.006.111-.01.165 0 .03 0 .059-.007.088 0 .048-.009.095-.014.141l-.011.095c-.004.031-.011.086-.018.127l-.014.088a5.798 5.798 0 01-.02.108z"/><path class="o" d="M28.61 54.753l.018.034.124.218.067.113.029.048.05.084.014.024.046.073.084.132.09.134.062.092.142.2c.025.033.049.064.073.1.69-.321 1.381-.643 2.077-.953l-.025-.029-.091-.109-.037-.045a5.85 5.85 0 01-.258-.349l-.058-.086a2.996 2.996 0 01-.073-.11l-.059-.093-.07-.112-.074-.124-.055-.093-.064-.113-.062-.111-.073-.136-.068-.128.841-.236v-.079l.57-.16.012.178c0 .055.006.109.009.164v.081q.005.122.007.242v.297c0 .088 0 .174-.007.258v.081c0 .056-.006.113-.01.167 0 .024-.007.089-.007.089 0 .049-.009.1-.014.143l-.011.1-.018.13-.008.055a40.508 40.508 0 011.873-.772v-.012l.011-.094.007-.059.013-.166c0-.053.007-.108.01-.163l.005-.1c0-.075 0-.152.005-.238v-.011-.272q0-.118-.007-.237l-.006-.113c0-.036 0-.073-.006-.115v-.012c0-.08-.011-.161-.017-.242v-.03a13.596 13.596 0 00-.026-.277l-.007-.065-.028-.245-.013-.1-.03-.22-.009-.063v-.029q-.03-.2-.065-.4l-.014-.077a29.735 29.735 0 00-.08-.422l-.008-.038c-.02-.1-.042-.2-.064-.3l-.022-.1-.067-.285-.015-.063q-.042-.17-.087-.34l-.023-.086-.074-.266-.043-.152c-.015-.053-.031-.1-.047-.157l-.043-.142q-.054-.175-.111-.348l-.026-.077-.091-.266-.043-.12-.08-.221-.022-.06-.021-.053a16.947 16.947 0 00-.141-.361l-.014-.035a16.514 16.514 0 00-.159-.378l-.018-.044-.032-.07-.079-.175-.057-.123-.082-.171-.036-.076-.023-.045-.063-.124-.069-.132-.107-.2-.084-.147-.078-.133-.086-.143-.1-.16a6.328 6.328 0 00-.09-.135l-.055-.082q-.062-.089-.124-.173a10.752 10.752 0 00-.127-.166l-.03-.037a1.274 1.274 0 00-.087-.1l-.046-.052-.074-.083-.019-.021-.025-.025-.089-.09-.041-.039-.1-.093-.015-.013-.022-.018-.077-.06h-.007a37.5 37.5 0 00-3.981 1.494v.024c0 .061-.008.123-.011.186l-.006.116c0 .086 0 .174-.006.273v.324c0 .094 0 .19.009.286l.012.242v.045c0 .054.008.109.012.163v.01l.012.15.017.179.011.116v.032l.036.314.006.047c.015.121.033.243.051.365l.011.072q.032.209.069.421l.016.094q.042.232.089.465l.007.035.018.081q.029.142.061.285l.029.132.072.307.023.1.1.4.025.091.085.309.038.131q.041.141.084.28l.037.121c.039.124.078.248.118.37l.007.02q.064.194.131.384l.041.114q.049.136.1.271l.025.068.018.046q.084.224.173.443l.025.06q.082.2.167.395l.022.052.015.033q.063.142.127.28l.023.051q.076.163.153.32l.072.143.071.14.076.144zm.535-8.168v.091l-.626.176-.01-.121-.009-.119c0-.048-.007-.1-.01-.143l-.009-.171v-.083c0-.085-.007-.17-.008-.254v-.297c0-.089 0-.174.007-.259v-.08c0-.057.006-.113.01-.167 0-.025.007-.089.007-.089 0-.049.009-.1.014-.144l.011-.1.018-.13.014-.089.02-.111.047-.232.132.143.069.076.048.054.09.109.037.046a5.632 5.632 0 01.264.358l.046.068.092.138.052.082.083.134.056.094.079.136.056.1.073.133.065.121.064.124.082.162z"/><path class="p" d="M27.812 53.062q.082.2.167.395l.022.052.015.033q.063.142.127.28l.023.051q.076.163.153.32l.072.143.071.14.029.054q1.015-.465 2.028-.934l-.033-.061-.068-.128.841-.236v-.079l.57-.16v.048q.857-.407 1.706-.829l.114-.057c0-.031-.006-.062-.009-.093l-.007-.065-.028-.245-.013-.1-.03-.22-.009-.063v-.029q-.03-.2-.065-.4l-.014-.077a29.735 29.735 0 00-.08-.422l-.008-.038c-.02-.1-.042-.2-.064-.3l-.022-.1-.067-.285-.015-.063q-.042-.17-.087-.34l-.023-.086-.074-.266-.043-.152c-.015-.053-.031-.1-.047-.157l-.043-.142q-.054-.175-.111-.348l-.026-.077-.091-.266-.043-.12-.08-.221-.022-.06-.021-.053a16.947 16.947 0 00-.141-.361l-.014-.035a16.514 16.514 0 00-.159-.378l-.018-.044-.032-.07-.079-.175-.057-.123-.082-.171-.036-.076-.023-.045-.063-.124-.069-.132-.107-.2-.084-.147-.078-.133-.086-.143-.074-.117c-.589.209-1.171.437-1.743.686l.028.047.079.136.056.1.073.133.065.121.064.124.082.162-.863.242v.091l-.626.176-.01-.121-.009-.119c0-.048-.007-.1-.01-.143l-.009-.171v-.083c0-.062 0-.123-.006-.184a19.437 19.437 0 00-2.147 1.243l.033.28.006.047c.015.121.033.243.051.365l.011.072q.032.209.069.421l.016.094q.042.232.089.465l.007.035.018.081q.029.142.061.285l.029.132.072.307.023.1.1.4.025.091.085.309.038.131q.041.141.084.28l.037.121c.039.124.078.248.118.37l.007.02q.064.194.131.384l.041.114q.049.136.1.271l.025.068.018.046q.084.224.173.443z"/><path class="q" d="M31.087 44.346a17.571 17.571 0 012.722 8.68c.056 2.843-1.073 3.565-2.52 1.613a17.571 17.571 0 01-2.721-8.68c-.056-2.842 1.072-3.565 2.519-1.613zm.273 8.266c.5.6.885.564.865-.427-.037-1.871-1.308-3.487-1.328-4.486-.007-.361.147-.365.365-.071a2.521 2.521 0 01.393.75c0 .047.01.087.01.1l.009.453.312.454.031-1.2a18.4 18.4 0 00-.654-1.11v-.749l-.274-.394v.749c-.517-.672-.891-.687-.873.253.038 1.955 1.3 3.49 1.326 4.6.008.411-.172.34-.373.069a3.867 3.867 0 01-.5-.881 3.546 3.546 0 01-.032-.361c-.006-.09-.012-.361-.012-.376l-.3-.451-.038 1.239a8.918 8.918 0 00.794 1.455v.62l.278.4v-.64"/><path class="r" d="M31.9 50.5a5.581 5.581 0 01.326 1.685c.019.991-.363 1.022-.865.427v.637l-.278-.4v-.62a8.894 8.894 0 01-.794-1.455l.038-1.239.3.451c0 .014.006.286.012.376a3.546 3.546 0 00.032.361 3.867 3.867 0 00.5.881c.2.271.381.342.373-.069-.019-.99-1.032-2.322-1.274-3.99a19.531 19.531 0 01-1.368-3.753 4.845 4.845 0 00-.333 2.168 17.572 17.572 0 002.721 8.68c1.4 1.886 2.5 1.275 2.522-1.334A41.768 41.768 0 0131.9 50.5z"/><path class="v" d="M31.073 43.596a20.131 20.131 0 013.117 9.943c.064 3.256-1.229 4.084-2.887 1.849a20.128 20.128 0 01-3.117-9.943c-.064-3.256 1.229-4.084 2.887-1.849zm.216 11.043c1.448 1.951 2.576 1.23 2.52-1.613a17.571 17.571 0 00-2.722-8.68c-1.447-1.952-2.576-1.229-2.52 1.614a17.571 17.571 0 002.721 8.68"/><path class="w" d="M33.895 53.754a2.493 2.493 0 01-.729 1.961.856.856 0 01-.87 0 3.27 3.27 0 01-1.088-1.021 17.716 17.716 0 01-2.741-8.737 3.481 3.481 0 01.659-2.63q-.091-.36-.172-.723c-.454.383-.7 1.4-.669 2.835a20.043 20.043 0 003.1 9.885 3.546 3.546 0 001.167 1.1.768.768 0 00.786.007c.45-.287.716-1.15.75-2.4a6.645 6.645 0 01-.193-.277z"/><path class="t" d="M31.093 45.935l.274.394v.749c.219.336.451.747.654 1.11l-.031 1.2-.312-.454-.009-.453c0-.017-.006-.057-.01-.1a2.521 2.521 0 00-.393-.75c-.218-.294-.372-.29-.365.071.019 1 1.291 2.615 1.328 4.486.019.991-.363 1.022-.865.427v.637l-.278-.4v-.62a8.9 8.9 0 01-.794-1.455l.038-1.239.3.451c0 .014.006.286.012.376a3.546 3.546 0 00.032.361 3.867 3.867 0 00.5.881c.2.271.381.342.373-.069-.022-1.108-1.287-2.643-1.326-4.6-.018-.94.356-.925.873-.253z"/><path class="u" d="M31.338 49.361a12.652 12.652 0 01-.783-1 13.114 13.114 0 00.56 1.467 5 5 0 01.529 1.7c0 .2-.033.313-.115.365a.188.188 0 01-.191 0 .767.767 0 01-.247-.237 3.948 3.948 0 01-.51-.908V50.727c-.016-.138-.034-.308-.033-.371s-.009-.233-.011-.346l-.114-.169-.028.907a8.809 8.809 0 00.776 1.417l.017.025v.619l.078.113v-.592l.177.209a1.3 1.3 0 00.372.329c.106.052.151.023.165.013.049-.031.162-.162.151-.7a7.5 7.5 0 00-.793-2.82z"/><g><path class="ae" d="M31.039 52.319a8.894 8.894 0 01-.794-1.455l.026-.857-.166-.246L30.067 51a8.894 8.894 0 00.794 1.455v.619l.278.4v-.391l-.1-.145zM31.092 45.935l-.222.226v.4c.057.061.116.13.177.21z"/><path class="ae" d="M30.865 44.57a17.571 17.571 0 012.722 8.68 3.649 3.649 0 01-.558 2.49c.48-.266.764-1.165.736-2.626a17.573 17.573 0 00-2.722-8.68c-.8-1.079-1.5-1.339-1.962-.876.454-.249 1.084.066 1.784 1.012z"/><path class="ae" d="M29.996 47.164c.038 1.955 1.3 3.49 1.325 4.6a.948.948 0 010 .127c.111.068.188.008.183-.264-.022-1.108-1.287-2.643-1.326-4.6a1.357 1.357 0 01.084-.6c-.176.014-.276.242-.266.737zM31.9 53.092c-.152.019-.355-.121-.583-.391v.325c.255.238.464.277.583.066zM31.622 48.572c0-.017-.006-.057-.01-.1a2.524 2.524 0 00-.393-.75c-.19-.256-.331-.286-.36-.05a.722.722 0 01.182.186 2.52 2.52 0 01.393.75c0 .047.01.087.01.1l.009.452.312.454.221-.226-.356-.364z"/></g></g><g transform="translate(-.003 .001)" filter="url(#c)"><text transform="translate(57.14 44.34)" font-size="24" font-family="Poppins-Bold,Poppins" font-weight="700" fill="#ff9c08"><tspan x="-7.896" y="0">$</tspan></text></g><g><path class="x" d="M72.749 47.668l.006.021.029.089c.017.049.043.112.074.182 0 .011.007.018.012.03l.051.106 1 1.986-.8.647 1.6 3.179.785.552 1.266-1.031c.132.063.268.117.406.167l.115.04q.172.058.35.1l.086.023c.144.033.291.06.439.08l.109.012q.18.02.363.028c.025 0 .05.005.075.006H79.169l.119-.01c.049 0 .1-.007.147-.013l.094-.013.092-.013.077-.011a4.82 4.82 0 00.234-.045h.014l.029-.007c.056-.013.112-.025.169-.04l.177-.049h.02q.1-.029.191-.061c.055-.019.111-.039.166-.06h.019q.092-.035.183-.073t.18-.079q.094-.044.187-.091a7.14 7.14 0 00.172-.091l.014-.007h.008q.1-.055.2-.116l.114-.072.064-.041.046-.029q.127-.084.253-.177l.019-.015c.033-.024.065-.051.1-.076l.189-.148.084-.07c.123-.106.235-.211.34-.314l.028-.026c.055-.054.1-.108.153-.162l.059-.062q.114-.127.212-.253l.046-.062c.047-.063.093-.125.134-.187l.056-.089.066-.1.019-.038a3.236 3.236 0 00.151-.3v-.009q.056-.131.1-.259c.026-.079.047-.158.064-.236v-.021c.015-.067.027-.133.037-.2v-.012c0-.029.006-.059.009-.088s.01-.083.012-.123v-.02-.123-.094-.017q0-.118-.014-.234v-.012a3.593 3.593 0 00-.039-.276v-.029c0-.01-.006-.023-.008-.035q-.035-.185-.083-.365v-.014c0-.008 0-.015-.007-.022-.058-.215-.125-.423-.191-.625s-.129-.4-.181-.585l-.013-.048a3.401 3.401 0 01-.061-.267c0-.018-.005-.036-.008-.054a2.184 2.184 0 01-.029-.255v-.045a1.537 1.537 0 010-.158v-.029c0-.043.01-.087.018-.13 0-.01 0-.021.006-.031a1.268 1.268 0 01.04-.146l.011-.03c.012-.033.027-.065.042-.1s.034-.068.054-.1l.04-.065a1.478 1.478 0 01.155-.2 1.85 1.85 0 01.154-.148 2.163 2.163 0 01.257-.19l.01-.006a2.044 2.044 0 01.268-.141h.006a1.978 1.978 0 01.283-.1l.035-.006 1.094 2.179.87.629 2.56-1.953-1-1.985.992-.8-1.6-3.179-.772-.544-1.5 1.21a4.477 4.477 0 00-.436-.215l-.1-.041a4.4 4.4 0 00-.448-.156l-.072-.018q-.209-.056-.424-.091l-.088-.015a4.383 4.383 0 00-.477-.041H82.96c-.053 0-.106.009-.159.014l-.085.008h-.029c-.077.009-.154.02-.231.034l-.051.01-.053.01-.094.018a3.827 3.827 0 00-.185.044l-.032.009-.036.01-.107.03q-.082.025-.165.053l-.044.016-.037.013-.082.029c-.054.02-.107.042-.16.064l-.071.031-.037.016-.054.023c-.055.025-.109.052-.164.079l-.093.049-.039.021-.041.022-.179.1-.079.05-.057.036-.064.04q-.115.077-.23.161l-.011.009-.063.049c-.069.052-.137.1-.2.16l-.076.064c-.128.11-.243.218-.353.326-.013.013-.03.026-.043.04l-.056.059q-.067.068-.129.136a5.037 5.037 0 00-.298.355l-.038.048a3.61 3.61 0 00-.094.133l-.019.027-.007.01-.038.062c-.035.055-.071.109-.1.163 0 .006-.006.012-.009.018a3.351 3.351 0 00-.157.313l-.009.018c-.014.033-.024.065-.037.1l-.054.143c0 .008-.007.017-.009.025-.012.037-.02.074-.03.111l-.03.109c0 .007 0 .014-.006.021-.011.047-.018.093-.026.14 0 .025-.01.05-.014.075v.01c-.008.057-.012.112-.017.168 0 .019 0 .038-.006.057v.254c0 .077.006.154.014.23v.018c0 .006 0 .031.007.047.008.077.019.152.032.228 0 .014 0 .027.006.041s0 .018.006.028a5.925 5.925 0 00.093.411l.008.026c.048.179.1.354.155.524.048.155.093.3.134.453l.03.112c.017.066.031.13.044.195l.027.134c0 .026.008.052.011.078.01.072.017.143.02.214v.028a1.728 1.728 0 01-.011.252v.019a1.451 1.451 0 01-.058.26 1.447 1.447 0 01-.1.217c-.011.021-.021.043-.033.064-.021.036-.05.072-.075.107a1.779 1.779 0 01-.139.178 2.246 2.246 0 01-.2.2 2.309 2.309 0 01-.29.213h-.007a2.069 2.069 0 01-.294.15 1.854 1.854 0 01-.185.059l-1.317-2.625-.833-.626-2.68 2.018v.007zm2.032 2.9l-.031-.061 1.289-.97.565 1.126h-.033c-.148-.02-.3-.046-.439-.08l-.086-.023q-.178-.044-.35-.1l-.115-.04c-.138-.05-.275-.1-.406-.167zM85.967 43.5l.072.018a4.423 4.423 0 01.448.156l.1.042-.7.534-.43-.857.084.014q.217.04.426.096zm-5.562 5.961l-.007-.014.007.014c-.033-.115-.07-.232-.106-.351a14.147 14.147 0 01-.155-.525l-.013-.05a6.045 6.045 0 01-.088-.387c0-.023-.008-.046-.012-.07q-.019-.112-.032-.227c0-.022-.006-.043-.008-.065q-.011-.113-.013-.23v-.024-.1-.135c0-.019 0-.038.006-.057 0-.059.01-.118.019-.177 0-.025.009-.05.014-.075a3.25 3.25 0 01.031-.161c.008-.036.02-.073.03-.109s.025-.09.04-.135.035-.1.053-.143.029-.077.046-.115a3.37 3.37 0 01.157-.313c.034-.06.072-.121.111-.182l.045-.072.019-.027a4.12 4.12 0 01.218-.289c.029-.036.073-.089.112-.133l.1-.112.128-.135.1-.1c.11-.107.225-.216.353-.326.092-.079.186-.153.281-.224.021-.016.042-.034.063-.049l.019-.013c.047.162.1.329.158.5.066.2.133.411.192.625l.01.037q.048.18.083.365c0 .021.008.043.012.064.016.091.03.183.039.276v.013q.011.116.014.234V46.698c0 .041-.008.1-.013.143 0 .029 0 .058-.009.088-.01.07-.023.14-.038.211v.022q-.027.119-.066.241t-.1.259l-.005.011a3.264 3.264 0 01-.151.3 3.484 3.484 0 01-.084.141l-.056.089a4.108 4.108 0 01-.134.187l-.046.063q-.1.125-.211.252l-.061.064a6.187 6.187 0 01-.18.187c-.105.1-.217.209-.341.314-.089.077-.18.147-.271.218-.033.025-.066.053-.1.077l-.11.076v-.011l-.02-.066-.03-.103z"/><path class="y" d="M96.171 45.686c.015-.105.022-.209.033-.313.008-.08.019-.16.025-.239 0-.03.008-.06.009-.089q.019-.3.015-.6v-.017c0-.185-.013-.368-.03-.549 0-.036-.011-.071-.015-.107-.007-.064-.017-.127-.026-.19-.011-.081-.019-.164-.033-.244s-.036-.163-.054-.245c-.013-.059-.024-.118-.039-.176-.008-.032-.013-.066-.022-.1q-.067-.256-.156-.5l-.007-.017c-.008-.023-.019-.044-.027-.066-.051-.137-.1-.273-.165-.406a2.486 2.486 0 00-.1-.2l-1.6-3.179a6.107 6.107 0 01.261.608l.027.066a6.25 6.25 0 01.184.618c.014.058.026.117.039.176q.053.241.087.488c.009.063.019.126.026.19.024.216.041.434.045.655v.018a9 9 0 01-.024.693c-.006.079-.016.159-.025.239a8.708 8.708 0 01-.063.475c-.017.105-.038.211-.059.317q-.042.209-.095.421c-.028.112-.06.224-.092.336l-.029-.127c-.01-.042-.011-.058-.019-.086q-.059-.223-.136-.44l-.006-.014c-.007-.02-.017-.04-.024-.059a4.947 4.947 0 00-.228-.529l-1.6-3.179a5.337 5.337 0 00-.394-.66 6.029 6.029 0 00-1.809-1.673 7.51 7.51 0 00-.585-.322c-.065-.032-.132-.06-.2-.091a7.454 7.454 0 00-.428-.185c-.079-.031-.159-.06-.239-.089q-.211-.076-.429-.143c-.082-.025-.165-.051-.248-.074a10.379 10.379 0 00-.477-.118c-.074-.017-.146-.035-.221-.05a10.32 10.32 0 00-.721-.122h-.026a12.877 12.877 0 00-.722-.072c-.081-.006-.164-.008-.247-.013-.12-.006-.238-.015-.36-.018h-.113c-.338-.006-.679 0-1.026.015h-.027.004l-.086.008q-.382.024-.77.067c-.037 0-.074.005-.111.01-.061.007-.124.019-.185.027q-.248.032-.5.072c-.058.009-.115.015-.172.025s-.1.021-.156.03c-.14.025-.28.052-.421.081-.07.014-.141.026-.212.041l-.142.034c-.124.028-.249.058-.373.089-.077.019-.153.035-.23.055l-.148.041c-.112.03-.224.061-.336.094-.075.021-.149.04-.223.062-.059.017-.117.038-.176.056l-.314.1c-.065.021-.131.04-.2.063s-.143.052-.215.077c-.1.035-.2.071-.3.109l-.156.056c-.089.034-.176.071-.265.106s-.191.075-.286.114l-.112.045c-.109.046-.217.1-.326.144-.088.039-.176.076-.264.116l-.07.031c-.133.062-.266.128-.4.193-.077.038-.155.073-.232.112l-.033.016c-.178.09-.355.185-.531.281l-.131.069h-.008c-.21.116-.418.237-.624.36l-.068.04q-.358.216-.708.448l-.02.013-.128.089c-.2.134-.4.271-.591.413l-.072.05c-.046.034-.089.071-.134.1q-.32.24-.631.494c-.044.036-.09.069-.134.1l-.237.2c-.182.156-.358.315-.529.474-.056.052-.109.1-.163.156-.081.077-.163.153-.242.231-.023.022-.042.045-.064.067-.217.217-.427.436-.624.656l-.07.082c-.174.2-.339.4-.5.594l-.15.192q-.219.285-.417.571c-.027.039-.056.078-.082.117-.153.226-.294.452-.427.679-.012.02-.026.039-.037.059-.032.056-.059.111-.09.167-.063.114-.126.227-.184.341-.042.082-.081.164-.121.246a10.85 10.85 0 00-.154.332c-.018.04-.039.08-.056.121s-.021.061-.034.091c-.1.247-.2.493-.274.737 0 .008 0 .016-.007.025-.064.2-.118.406-.166.607-.005.023-.014.047-.019.07-.011.047-.016.094-.026.142a7.09 7.09 0 00-.068.366l-.021.111c-.006.037-.008.082-.013.123q-.019.152-.031.3c0 .045-.011.09-.014.135s0 .072 0 .108c0 .091-.006.181-.007.27v.146c0 .046 0 .068.006.1s0 .069 0 .1.009.076.011.115c0 .058 0 .118.01.176s.018.126.026.19.015.123.025.184c.005.033.008.066.014.1.019.108.045.213.07.319l.024.108c0 .009 0 .017.006.026q.059.223.136.44c0 .013.011.026.016.039.016.044.035.086.052.129.034.087.066.174.1.259q.041.089.084.176l1.6 3.179a5.4 5.4 0 00.76 1.112c-.072-.027-.145-.052-.216-.081l-.209-.087a7.03 7.03 0 01-.4-.187c-.06-.029-.12-.057-.179-.087-.187-.1-.371-.2-.549-.307a6.651 6.651 0 01-2.525-2.676l1.6 3.179a6.65 6.65 0 002.525 2.676c.177.109.361.21.549.307.059.03.119.058.179.087a8.833 8.833 0 001.039.432c.064.022.128.046.193.067.2.067.411.129.623.185h.012c.216.056.437.105.66.15.07.014.141.026.211.038.158.029.316.055.477.078l.244.033q.242.03.488.052l.224.02c.227.017.456.029.688.035h.029q.326.008.657 0c.065 0 .132-.005.2-.007.156 0 .312-.009.47-.017h.078c.312-.018.628-.047.945-.083.036 0 .071-.005.107-.009l.067-.01q.428-.052.861-.124l.051-.007c.049-.008.1-.02.149-.029q.31-.055.622-.12c.044-.009.088-.016.133-.026l.132-.031q.274-.061.549-.13c.058-.014.115-.026.172-.041l.071-.02q.312-.082.624-.174l.115-.032h.015q.369-.111.737-.236l.032-.01c.062-.021.125-.045.187-.067.17-.06.341-.12.511-.184l.073-.026c.07-.027.139-.056.209-.084.147-.057.294-.115.44-.176l.109-.044c.063-.026.125-.055.187-.082q.213-.092.426-.188l.142-.063.153-.074q.218-.1.435-.21c.057-.028.115-.054.172-.083l.112-.059c.157-.08.312-.163.468-.247.062-.034.126-.065.188-.1l.063-.037c.245-.136.489-.276.729-.421.254-.153.5-.313.752-.476l.084-.054c.041-.027.08-.057.121-.084q.339-.228.669-.467c.038-.028.078-.053.116-.081l.042-.033c.306-.226.605-.461.9-.7.029-.024.06-.046.09-.07q.137-.113.272-.229c.261-.224.509-.452.751-.681l.166-.158c.051-.049.1-.1.154-.147.083-.082.156-.166.236-.248.151-.155.3-.309.443-.465.11-.121.215-.242.32-.364.134-.155.265-.31.391-.467.1-.124.2-.248.29-.373q.177-.234.343-.469.132-.188.256-.376l.3-.474c.044-.074.1-.148.139-.221l.1-.188.158-.292c.085-.161.164-.322.24-.483.044-.095.09-.189.131-.283.02-.045.044-.09.063-.136.031-.074.052-.147.082-.22.076-.19.148-.38.211-.569.018-.054.044-.109.061-.164.023-.07.037-.14.057-.21.04-.135.077-.269.11-.4.016-.063.038-.127.052-.191s.027-.153.043-.23c.021-.106.042-.212.059-.317-.006-.047.008-.102.016-.156zM69.605 52.66l-.005-.038q-.023-.181-.035-.366c0-.072-.01-.145-.012-.218s0-.166 0-.249 0-.18.007-.27.01-.162.017-.244q.012-.151.031-.3a6.65 6.65 0 01.102-.6c.015-.071.029-.142.046-.213.048-.2.1-.4.166-.607 0-.009 0-.018.008-.027.078-.245.172-.491.274-.737.029-.07.058-.141.09-.212a9.887 9.887 0 01.275-.578c.058-.114.121-.228.184-.341.042-.075.083-.15.127-.225.133-.227.274-.454.427-.679.026-.039.055-.078.083-.116q.2-.287.417-.571.074-.1.149-.191.238-.3.5-.595l.07-.082c.2-.221.407-.439.624-.656q.15-.15.306-.3c.055-.052.107-.1.163-.155.172-.159.347-.317.529-.474.122-.1.247-.2.371-.305q.311-.253.631-.493c.069-.052.137-.1.206-.155.195-.142.392-.279.591-.413.05-.034.1-.069.148-.1q.35-.231.708-.448l.069-.04c.209-.125.42-.247.632-.365l.129-.068.567-.3c.076-.038.153-.074.229-.111.156-.076.313-.152.47-.224.088-.04.176-.078.264-.116.146-.064.291-.128.438-.188l.286-.114c.14-.055.28-.11.421-.162l.3-.109q.205-.072.411-.14l.314-.1a26.363 26.363 0 01.734-.212l.38-.1c.127-.034.248-.06.372-.088s.237-.051.355-.075a16.315 16.315 0 01.749-.136q.25-.04.5-.072l.3-.036q.388-.043.77-.067l.1-.008c.356-.02.706-.023 1.053-.017q.238 0 .472.017c.082 0 .165.007.247.013.244.017.485.041.722.072h.026c.245.033.485.075.722.123.074.015.146.033.219.05a7.767 7.767 0 01.727.192q.218.067.429.143a8.24 8.24 0 01.667.275c.066.031.133.059.2.091.2.1.4.206.586.322a6.357 6.357 0 011.135.9c.006.045.013.089.018.134.021.188.035.378.039.572v.016c0 .2-.006.4-.021.6-.005.069-.014.14-.022.209a7.491 7.491 0 01-.055.415c-.015.092-.033.184-.051.277q-.036.183-.083.367c-.029.117-.061.235-.1.352s-.066.217-.1.326c-.056.165-.118.331-.185.5-.041.1-.08.206-.126.309a13.81 13.81 0 01-.323.669q-.067.129-.139.257c-.066.119-.138.237-.209.356-.083.138-.17.276-.26.414q-.108.164-.223.328-.144.206-.3.411a14.23 14.23 0 01-.594.732c-.092.106-.183.212-.279.318a16.35 16.35 0 01-.388.407c-.112.115-.222.23-.339.343l-.147.14c-.211.2-.427.4-.655.593-.1.089-.21.175-.315.261q-.386.317-.786.614l-.136.1q-.289.21-.586.409l-.178.119c-.217.142-.435.282-.657.416-.211.127-.424.249-.638.368-.072.04-.144.078-.217.117a17.81 17.81 0 01-.409.216l-.249.125-.38.184-.256.118c-.124.057-.249.111-.374.165l-.256.109c-.129.054-.259.1-.389.155l-.241.094c-.15.056-.3.109-.451.162l-.188.066q-.322.109-.645.206l-.1.029c-.185.054-.371.107-.556.155l-.21.052q-.241.061-.481.114l-.231.05q-.272.057-.543.1l-.175.031q-.378.063-.752.108l-.152.017c-.277.031-.552.056-.825.072h-.062c-.394.022-.783.029-1.165.019h-.024c-.2-.006-.4-.016-.6-.031l-.2-.017q-.215-.019-.427-.045l-.211-.028a9.337 9.337 0 01-.418-.069l-.183-.033a10.292 10.292 0 01-.576-.131h-.015a8.006 8.006 0 01-.54-.16c-.057-.018-.112-.039-.169-.059a8.599 8.599 0 01-.371-.139l-.182-.076a8.148 8.148 0 01-.51-.239 7.656 7.656 0 01-.479-.268 6.364 6.364 0 01-1.144-.892z"/><path class="z" d="M94.755 43.816c0 .018-.009.035-.014.053l-.889-.028-.044-.2a4.791 4.791 0 00-.133-.422l-.019-.047a5.148 5.148 0 00-.13-.322c-.025-.053-.05-.107-.078-.161l-.162-.323v.038c0 .05-.023.224-.023.224a8.243 8.243 0 01-.112.733c-.026.129-.055.259-.088.389s-.065.247-.1.371-.07.227-.109.344c-.058.172-.124.346-.193.52l-.028.07-.1.254c-.033.085-.063.139-.1.209l-.024.051c-.069.146-.141.292-.218.439-.047.088-.094.177-.144.266-.069.123-.142.246-.216.368a15.516 15.516 0 01-.501.769q-.15.213-.31.425a15.838 15.838 0 01-.899 1.081c-.128.14-.263.28-.4.42l-.1.1c-.082.084-.165.169-.252.253l-.15.144c-.216.2-.438.408-.671.608-.092.079-.185.155-.279.231l-.044.036c-.263.216-.53.426-.805.629l-.138.1c-.2.143-.4.283-.631.44l-.15.1c-.214.14-.428.278-.646.41l-.035.029-.03.011c-.2.123-.408.239-.614.354l-.222.12a28.1 28.1 0 01-.418.221l-.255.127c-.129.064-.258.126-.389.188l-.261.12c-.127.058-.255.114-.383.169l-.263.112a15.84 15.84 0 01-.4.158l-.248.1c-.153.058-.307.112-.461.166l-.191.067c-.22.074-.44.145-.66.211l-.1.03c-.19.056-.38.109-.567.158l-.217.055c-.165.041-.329.08-.49.116l-.24.052c-.185.039-.371.074-.556.107l-.18.032c-.259.043-.516.08-.775.111l-.153.017c-.285.032-.568.057-.849.074h-.063a14.763 14.763 0 01-1.855-.014l-.443-.042-.2-.023-.22-.03a13.24 13.24 0 01-.437-.071l-.188-.034c-.2-.041-.405-.086-.619-.142a11.167 11.167 0 01-.567-.168l-.175-.061c-.133-.046-.264-.1-.392-.147l-.191-.08a7.975 7.975 0 01-.373-.172l-.166-.081a8.108 8.108 0 01-.509-.285l-.12-.076.162.324a5 5 0 00.7 1.016l-.507.73s-.176-.064-.226-.084l-.059-.025c.421.691.86 1.369 1.309 2.042l.1.051c.126.062.254.121.386.178l.2.082c.133.054.268.1.406.152l.184.065c.2.064.394.124.608.18s.42.1.633.144l.206.037c.152.028.3.053.457.075l.238.031.216.025a15.019 15.019 0 001.171.079q.317.008.637 0l.237-.008c.136 0 .274-.008.432-.016l.057-.005c.3-.018.612-.046.918-.08l.173-.019c.279-.034.559-.074.841-.121l.051-.007.145-.028q.3-.054.608-.117l.131-.025.128-.031c.178-.04.357-.083.539-.128l.237-.058c.2-.054.407-.111.612-.172l.127-.036c.241-.072.481-.149.753-.241l.183-.066c.167-.059.335-.118.5-.179l.075-.027.2-.081c.144-.056.288-.112.431-.172l.062-.025.228-.1c.139-.06.279-.121.419-.184l.14-.062.15-.073a23.8 23.8 0 00.426-.206l.17-.082.11-.058c.153-.079.306-.16.458-.242l.185-.1.062-.037q.348-.192.689-.4l.035-.029.029-.011c.236-.143.469-.292.7-.447l.079-.05.119-.083c.221-.149.44-.3.657-.459l.065-.045.089-.066c.3-.221.593-.451.878-.686l.09-.071a18.622 18.622 0 001.001-.891l.311-.3c.042-.042.081-.084.121-.127l.11-.116c.147-.151.293-.3.432-.454.107-.118.209-.237.312-.356.13-.151.258-.3.38-.454.1-.121.19-.241.281-.362a13.818 13.818 0 00.581-.822c.1-.152.2-.3.288-.458l.069-.11.065-.1.25-.463q.122-.233.231-.466l.187-.4c.014-.032.025-.064.036-.1s.026-.075.042-.115a7.98 7.98 0 00.2-.545l.058-.156c.01-.03.054-.2.054-.2.038-.128.073-.256.1-.384l.05-.179c.006-.023.04-.22.04-.22a9.77 9.77 0 00.052-.28 31.969 31.969 0 00-.915-1.962z"/><path class="aa" d="M85.286 57.052l.14-.062.15-.073a23.8 23.8 0 00.426-.206l.17-.082.11-.058c.153-.079.306-.16.458-.242l.185-.1.062-.037q.348-.192.689-.4l.035-.029.029-.011c.236-.143.469-.292.7-.447l.079-.05.119-.083c.221-.149.44-.3.657-.459l.065-.045.089-.066c.3-.221.593-.451.878-.686l.09-.071a18.622 18.622 0 001.001-.891l.311-.3c.042-.042.081-.084.121-.127l.11-.117c.147-.151.293-.3.432-.454.107-.118.209-.237.312-.356.13-.151.258-.3.38-.454.1-.121.19-.241.281-.362a13.818 13.818 0 00.581-.822c.1-.152.2-.3.288-.458l.069-.11.065-.1.179-.33q-1-1.8-2.081-3.55a1.974 1.974 0 00-.044.1l-.024.051c-.069.146-.141.292-.218.439-.047.088-.094.177-.144.266-.069.123-.142.246-.216.368a15.516 15.516 0 01-.501.769q-.15.213-.31.425a15.838 15.838 0 01-.899 1.081c-.128.14-.263.28-.4.42l-.1.1c-.082.084-.165.169-.252.253l-.15.144c-.216.2-.438.408-.671.608-.092.079-.185.155-.279.231l-.044.036c-.263.216-.53.426-.805.629l-.138.1c-.2.143-.4.283-.631.44l-.15.1c-.214.14-.428.278-.646.41l-.035.029-.03.011c-.2.123-.408.239-.614.354l-.222.12a28.1 28.1 0 01-.418.221l-.255.127c-.129.064-.258.126-.389.188l-.261.12c-.127.058-.255.114-.383.169l-.263.112a15.84 15.84 0 01-.4.158l-.248.1c-.153.058-.307.112-.461.166l-.191.067c-.22.074-.44.145-.66.211l-.1.03c-.19.056-.38.109-.567.158l-.217.055c-.165.041-.329.08-.49.116l-.24.052c-.185.039-.371.074-.556.107l-.18.032c-.152.026-.3.044-.457.066q1.205 1.738 2.5 3.409l.071-.014.128-.031c.178-.04.357-.083.539-.128l.237-.058q.3-.08.612-.172l.127-.036c.241-.072.481-.149.753-.241l.183-.066c.167-.059.335-.118.5-.179l.075-.027.2-.081c.144-.056.288-.112.431-.172l.062-.025.228-.1c.156-.056.294-.119.433-.18z"/><path class="n" d="M86.924 39.543l.772.544-1.5 1.213a11.222 11.222 0 011.5 1.574l-2.56 1.953-.87-.629.851-.731a2.135 2.135 0 00.147-.164c.027-.4-.163-.727-.739-1.081a1.875 1.875 0 00-2.213.241c-1.874 1.609 2.129 3.793-1.382 6.807a5.31 5.31 0 01-5.759.983l-1.266 1.029-.785-.552 1.234-1a4.059 4.059 0 01-1.615-2.085l2.68-2.018.833.626c-.027.023-.536.46-.681.6a4.555 4.555 0 00-.538.575c0 .093.117.674 1.063 1.256a1.874 1.874 0 002.254-.238c2.079-1.785-2.055-3.838 1.615-6.989a4.668 4.668 0 015.457-.7z"/><path class="ak" d="M78.931 45.863a2.624 2.624 0 01.03 2.242 16.249 16.249 0 01.585 1.8 6.054 6.054 0 001.231-.821c1.908-1.638 1.483-2.934 1.072-4.187-.3-.9-.6-1.837.31-2.62a2.306 2.306 0 01.8-.449c-.057-.464-.1-.93-.153-1.4a4.911 4.911 0 00-2.686 1.2c-1.969 1.706-1.574 2.992-1.189 4.235zM75.972 50.299a4.561 4.561 0 00.679.14q-.145-.676-.263-1.355a2.107 2.107 0 01-.416-.2 3.955 3.955 0 01-.369-.256 3.01 3.01 0 01-.321-.29c.264.641.486 1.297.69 1.961zM74.611 46.961c.07.12.132.244.2.367l.043-.052a5.568 5.568 0 01.569-.605c.074-.072.212-.194.363-.326l-.043-.182-.318-.239-.849.639c.009.133.021.265.035.398z"/><path class="ak" d="M90.057 36.971c4.337 2.668 3.528 8.544-1.807 13.124s-13.175 6.129-17.512 3.461-3.527-8.543 1.807-13.122 13.176-6.13 17.512-3.463zM75.174 50.252a5.31 5.31 0 005.759-.983c3.511-3.014-.492-5.2 1.382-6.807a1.875 1.875 0 012.213-.241c.576.354.766.681.739 1.081a2.135 2.135 0 01-.147.164l-.851.731.87.629 2.56-1.953a11.224 11.224 0 00-1.5-1.574l1.5-1.213-.772-.544-1.503 1.217a4.668 4.668 0 00-5.457.7c-3.67 3.151.464 5.2-1.615 6.989a1.874 1.874 0 01-2.254.238c-.947-.582-1.061-1.164-1.063-1.256a4.555 4.555 0 01.538-.575c.145-.143.654-.58.681-.6l-.833-.626-2.68 2.018a4.059 4.059 0 001.615 2.085l-1.234 1 .785.552 1.266-1.031"/><path class="o" d="M73.78 46.859l1.64-1.235.833.626c-.027.023-.536.46-.681.6a4.532 4.532 0 00-.538.575c0 .093.117.674 1.063 1.256a1.875 1.875 0 002.254-.238c2.079-1.785-2.055-3.838 1.615-6.989a4.669 4.669 0 015.457-.7l.743-.6q-.2-2.22-.35-4.449a19.285 19.285 0 00-13.272 4.729c-.071.061-.138.123-.207.184q.694 3.127 1.443 6.241z"/><path class="o" d="M87.532 50.677q-.6-3.439-.993-6.919l-1.4 1.068-.87-.629.851-.731a2.1 2.1 0 00.147-.164c.027-.4-.163-.727-.739-1.081a1.875 1.875 0 00-2.213.241c-1.874 1.609 2.129 3.793-1.382 6.807a5.31 5.31 0 01-5.759.982l-.463.377q.535 2.118 1.1 4.23a19.5 19.5 0 0011.721-4.181z"/><path class="ad" d="M86.27 41.24l-.074.06c.03.025.058.052.087.078l-.013-.138z"/><g><path class="ae" d="M88.111 43.379c-.132-.16-.273-.327-.42-.495l-2.547 1.943-.33-.239-.133.114.871.629zM84.935 42.726a2.848 2.848 0 01.276.193 1.513 1.513 0 00-.683-.7 1.875 1.875 0 00-2.213.241c-1.874 1.609 2.129 3.793-1.382 6.807a5.31 5.31 0 01-5.759.982l-1.266 1.031-.234-.164-.144.117.785.552 1.266-1.031a5.31 5.31 0 005.759-.982c3.511-3.014-.493-5.2 1.382-6.807a1.875 1.875 0 012.213-.239zM74.259 49.809l.1-.081a5.325 5.325 0 01-.754-.673 4.671 4.671 0 00.654.754z"/><path class="ae" d="M72.952 40.939c5.335-4.58 13.177-6.131 17.513-3.463a6.291 6.291 0 011.355 1.11 6.046 6.046 0 00-1.762-1.614c-4.336-2.667-12.177-1.117-17.513 3.464-4.684 4.021-5.877 9.043-3.161 12.013-2.167-3.013-.861-7.707 3.568-11.51z"/><path class="ae" d="M75.572 46.854a4.532 4.532 0 00-.538.575 1.464 1.464 0 00.533.858.941.941 0 01-.126-.353 4.563 4.563 0 01.539-.575c.145-.143.654-.58.681-.6l-.53-.4a15.64 15.64 0 00-.559.495zM86.195 41.3c.169.138.329.287.486.441l1.421-1.149-.551-.388z"/></g><path class="n" d="M91.461 35.766c4.968 3.056 4.041 9.785-2.07 15.031S74.3 57.819 69.332 54.763s-4.041-9.785 2.07-15.031 15.092-7.022 20.059-3.966zm-20.723 17.79c4.337 2.668 12.179 1.118 17.512-3.461s6.145-10.456 1.807-13.124-12.177-1.115-17.512 3.463-6.143 10.455-1.807 13.122"/><g><path class="o" d="M89.714 49.349q-.546.561-1.165 1.094c-3.963 3.4-9.457 5.288-14 4.8a11.587 11.587 0 01-1.394-.236l.125.643c.172.025.346.049.523.068 4.941.527 10.941-1.542 15.285-5.271q.322-.276.626-.56a24.12 24.12 0 000-.538zM72.246 40.088c3.964-3.4 9.459-5.289 14-4.8a9.961 9.961 0 013.564 1.023c.007-.278.01-.556.018-.834a11.175 11.175 0 00-2.84-.663c-4.941-.527-10.941 1.542-15.286 5.272-.312.268-.607.543-.894.821.024.166.045.333.069.5a17.7 17.7 0 011.369-1.319z"/></g></g></svg>