<svg xmlns="http://www.w3.org/2000/svg" width="115" height="98"><defs><linearGradient id="a" x1=".544" y1=".654" x2=".53" y2="1" gradientUnits="objectBoundingBox"><stop offset="0" stop-color="#023c8e"/><stop offset="1" stop-color="#000206"/></linearGradient><clipPath id="b"><path d="M148.149 311.657l86.671-3.187-16.92 55.288s-9.807 18.511-30.157 18.511-34.938-20.472-38-33.222-1.594-37.39-1.594-37.39z" fill="#1f0"/></clipPath><style>.c{fill:#f9d366}.d{fill:#ff6310}.f{fill:#ffb11e}.g,.j{fill:#ccc;mix-blend-mode:multiply;isolation:isolate}.h{fill:#ffdb45}.i{fill:#ffc631}.j{opacity:.6}</style></defs><g transform="translate(27.137 30.341)" stroke="rgba(1,104,179,.21)" stroke-width="4" fill="url(#a)"><circle cx="32" cy="32" r="32" stroke="none"/><circle cx="32" cy="32" r="34" fill="none"/></g><path class="c" d="M11.344 36.09l1.735-.352a.767.767 0 000-1.5l-1.735-.348a4.343 4.343 0 01-3.394-3.4l-.352-1.735a.767.767 0 00-1.5 0l-.354 1.735a4.343 4.343 0 01-3.394 3.4l-1.735.352a.767.767 0 000 1.5l1.735.352a4.343 4.343 0 013.394 3.396l.352 1.735a.767.767 0 001.5 0l.352-1.735a4.343 4.343 0 013.396-3.4zM87.736 5.825l.534-.108a.236.236 0 000-.462l-.534-.108a1.336 1.336 0 01-1.044-1.044l-.108-.534a.236.236 0 00-.462 0l-.108.534a1.336 1.336 0 01-1.044 1.044l-.534.108a.236.236 0 000 .462l.534.108a1.336 1.336 0 011.044 1.044l.108.534a.236.236 0 00.462 0l.108-.534a1.336 1.336 0 011.044-1.044zM105.876 11.033l2.408-.488a1.064 1.064 0 000-2.086l-2.408-.488a6.026 6.026 0 01-4.708-4.708L100.68.855a1.064 1.064 0 00-2.086 0l-.488 2.408a6.026 6.026 0 01-4.708 4.708l-2.408.488a1.064 1.064 0 000 2.086l2.408.488a6.026 6.026 0 014.708 4.708l.488 2.408a1.064 1.064 0 002.086 0l.488-2.408a6.026 6.026 0 014.708-4.708z"/><path class="d" d="M111.41 22.976a.747.747 0 01-.747-.747v-2.022a.747.747 0 111.494 0v2.022a.747.747 0 01-.747.747zM111.41 28.421a.747.747 0 01-.747-.747v-2.022a.747.747 0 011.494 0v2.022a.747.747 0 01-.747.747zM115.143 24.688h-2.022a.747.747 0 010-1.494h2.022a.747.747 0 110 1.494zM109.698 24.688h-2.025a.747.747 0 010-1.494h2.022a.747.747 0 010 1.494z"/><g><path class="d" d="M19.028 16.929a1.017 1.017 0 01-1.017-1.017v-2.753a1.017 1.017 0 112.033 0v2.753a1.017 1.017 0 01-1.016 1.017zM19.028 24.34a1.017 1.017 0 01-1.017-1.017V20.57a1.017 1.017 0 012.033 0v2.753a1.017 1.017 0 01-1.016 1.017zM24.11 19.256h-2.753a1.017 1.017 0 010-2.033h2.753a1.017 1.017 0 110 2.033zM16.698 19.256h-2.753a1.017 1.017 0 010-2.033h2.753a1.017 1.017 0 010 2.033z"/></g><g clip-path="url(#b)" transform="translate(-128.863 -287.659)"><g transform="translate(-179.88 -260.189)"><path class="f" d="M399.998 581.809c-4.836-.6-7.049 3.4-8.832 6.6-.263.474-.512.914-.754 1.325a61.968 61.968 0 01-.6 5.428c1.773-1.206 2.952-3.32 4.032-5.261 1.859-3.342 3.138-5.37 5.775-5.048 1.391.171 2.857 3.046 2.8 7.392-.089 6.638-4.159 17.852-18.284 21a40.258 40.258 0 01-2.036 3.5c18.18-2.6 23.282-16.449 23.389-24.458.08-5.853-2.126-10.064-5.49-10.478zM335.375 581.809c4.836-.6 7.049 3.4 8.832 6.6.264.474.513.914.755 1.325.117 1.787.317 3.6.6 5.428-1.773-1.206-2.952-3.32-4.032-5.261-1.859-3.342-3.138-5.37-5.775-5.048-1.391.171-2.857 3.046-2.8 7.392.089 6.638 4.159 17.852 18.284 21a40.141 40.141 0 002.036 3.5c-18.18-2.6-23.282-16.449-23.389-24.458-.086-5.853 2.125-10.064 5.489-10.478z"/><path class="g" d="M399.998 581.809c-4.836-.6-7.049 3.4-8.832 6.6-.263.474-.512.914-.754 1.325a61.968 61.968 0 01-.6 5.428c1.773-1.206 2.952-3.32 4.032-5.261 1.859-3.342 3.138-5.37 5.775-5.048 1.391.171 2.857 3.046 2.8 7.392-.089 6.638-4.159 17.852-18.284 21a40.258 40.258 0 01-2.036 3.5c18.18-2.6 23.282-16.449 23.389-24.458.08-5.853-2.126-10.064-5.49-10.478z"/><ellipse class="h" cx="21.861" cy="6.168" rx="21.861" ry="6.168" transform="translate(345.891 640.742)"/><path class="i" d="M367.753 645.62c-10.954 0-19.834-2.506-19.834-5.6v4.675c0 3.091 8.88 5.6 19.834 5.6s19.833-2.506 19.833-5.6v-4.667c.001 3.086-8.879 5.592-19.833 5.592z"/><ellipse class="i" cx="19.834" cy="5.596" rx="19.834" ry="5.596" transform="translate(347.919 634.428)"/><path class="j" d="M367.753 634.427c10.954 0 19.833 2.506 19.833 5.6v4.292c1.3.789 2.028 1.667 2.028 2.594 0 3.407-9.788 6.168-21.861 6.168z"/><path class="h" d="M385.89 638.506c-.084-.034-.175-.067-.271-.1s-.171-.067-.266-.1-.169-.068-.263-.1-.166-.068-.259-.1-.163-.069-.255-.1-.166-.072-.26-.107-.171-.075-.267-.111a4.518 4.518 0 00-.26-.111 3.795 3.795 0 00-.249-.107 3.698 3.698 0 00-.245-.108 3.285 3.285 0 00-.241-.109 3.374 3.374 0 00-.237-.11 2.858 2.858 0 00-.233-.11 2.757 2.757 0 00-.23-.112 2.639 2.639 0 00-.243-.119 2.466 2.466 0 00-.239-.12 2.438 2.438 0 00-.235-.121 2.278 2.278 0 00-.232-.122 2.04 2.04 0 00-.225-.121 2.009 2.009 0 00-.214-.118 1.961 1.961 0 00-.211-.119 1.751 1.751 0 00-.207-.12 1.631 1.631 0 00-.207-.122 1.563 1.563 0 00-.214-.129 1.438 1.438 0 00-.21-.13 1.372 1.372 0 00-.205-.131 1.335 1.335 0 00-.2-.132 1.248 1.248 0 00-.2-.133 1.17 1.17 0 00-.194-.134 1.075 1.075 0 00-.19-.135 1.012 1.012 0 00-.184-.133 108.505 108.505 0 00-.395-.294.921.921 0 00-.159-.12.769.769 0 00-.173-.141.721.721 0 00-.169-.142.692.692 0 00-.164-.143.658.658 0 00-.161-.144.6.6 0 00-.157-.145.557.557 0 00-.153-.146.529.529 0 00-.154-.151.516.516 0 00-.154-.154.483.483 0 00-.15-.155.45.45 0 00-.146-.156.416.416 0 00-.141-.158.4.4 0 00-.137-.159.37.37 0 00-.134-.16.347.347 0 00-.129-.161.327.327 0 00-.125-.163.307.307 0 00-.121-.164c-.141-.6-3.663-1.083-8.073-1.083s-7.932.485-8.073 1.083a.307.307 0 00-.121.164.327.327 0 00-.125.163.349.349 0 00-.129.161.372.372 0 00-.133.16.4.4 0 00-.137.159.416.416 0 00-.141.158.45.45 0 00-.146.156.484.484 0 00-.15.155.516.516 0 00-.154.154.539.539 0 00-.155.151.561.561 0 00-.152.146.6.6 0 00-.157.145.647.647 0 00-.161.144.692.692 0 00-.164.143.721.721 0 00-.169.142.768.768 0 00-.173.141.9.9 0 00-.159.12.953.953 0 00-.219.162.969.969 0 00-.176.131 1.015 1.015 0 00-.184.133 1.076 1.076 0 00-.19.135 1.146 1.146 0 00-.194.134 1.25 1.25 0 00-.2.133 1.339 1.339 0 00-.2.132 1.413 1.413 0 00-.206.131 1.514 1.514 0 00-.21.13 1.59 1.59 0 00-.214.129 1.627 1.627 0 00-.207.122 1.746 1.746 0 00-.207.12 1.9 1.9 0 00-.211.119 2.007 2.007 0 00-.214.118 2.04 2.04 0 00-.225.121 2.215 2.215 0 00-.232.122 2.438 2.438 0 00-.235.121 2.4 2.4 0 00-.239.12 2.633 2.633 0 00-.243.119 2.757 2.757 0 00-.23.112 2.708 2.708 0 00-.233.11 2.974 2.974 0 00-.237.11 3.285 3.285 0 00-.241.109 3.945 3.945 0 00-.245.108c-.09.036-.173.071-.249.107a3.277 3.277 0 00-.26.111c-.1.037-.186.074-.267.111s-.18.071-.26.107-.177.068-.255.1-.179.068-.259.1-.182.068-.263.1-.184.067-.266.1-.187.066-.27.1c-.82.277-1.212.577-1.087.887.5 1.241 9.1 2.2 19.224 2.2s18.722-.959 19.224-2.2c.133-.309-.26-.609-1.08-.886z"/><path class="j" d="M367.752 630.933c4.41 0 7.932.485 8.073 1.083a.307.307 0 01.121.164.327.327 0 01.125.163.346.346 0 01.129.161.37.37 0 01.134.16.4.4 0 01.137.159.416.416 0 01.141.158.45.45 0 01.146.156.484.484 0 01.15.155.516.516 0 01.153.154.528.528 0 01.154.151.556.556 0 01.153.146.6.6 0 01.157.145.658.658 0 01.161.144.693.693 0 01.164.143.723.723 0 01.169.142.769.769 0 01.173.141.922.922 0 01.159.12 115.288 115.288 0 01.395.294 1.012 1.012 0 01.184.133 1.075 1.075 0 01.19.135 1.173 1.173 0 01.194.134 1.248 1.248 0 01.2.133 1.335 1.335 0 01.2.132 1.368 1.368 0 01.205.131 1.444 1.444 0 01.21.13 1.566 1.566 0 01.214.129 1.635 1.635 0 01.207.122 1.76 1.76 0 01.207.12 1.963 1.963 0 01.211.119 2.008 2.008 0 01.214.118 2.029 2.029 0 01.225.121 2.283 2.283 0 01.232.122 31.51 31.51 0 00.474.242 2.632 2.632 0 01.243.119c.084.037.162.074.23.112.085.036.164.073.233.11.087.036.166.073.237.11.088.036.168.072.241.109.09.036.171.072.245.108.09.036.173.071.249.107.095.036.181.073.26.111.1.037.186.074.267.111s.18.071.26.107.177.068.255.1.179.068.259.1.182.068.263.1.183.067.266.1.187.066.271.1c.82.277 1.212.577 1.087.887-.5 1.241-9.1 2.2-19.224 2.2z"/><path class="i" d="M367.756 586.709c-15.189 0-27.5-3.474-27.5-7.76 0 15.734 6.626 34.765 18.7 44.326l.03.024c.058.046.115.1.173.142h.013c1.333.972 4.672 1.663 8.588 1.663s7.255-.691 8.589-1.663h.013c.058-.046.115-.1.173-.142l.029-.024c12.071-9.562 18.7-28.593 18.7-44.326-.008 4.286-12.323 7.76-27.508 7.76z"/><path class="f" d="M395.256 578.95c0 1.542-1.6 2.977-4.346 4.184-4.89 2.15-13.43 3.576-23.156 3.576s-18.266-1.425-23.156-3.576c-2.747-1.207-4.346-2.642-4.346-4.184a61.977 61.977 0 00.548 8.061v.016a2.247 2.247 0 00.079.555c1.008 3.941 12.651 7.051 26.876 7.051s25.868-3.11 26.876-7.051a2.246 2.246 0 00.079-.555v-.016a61.966 61.966 0 00.546-8.061zM376.194 606.275c-11.464 5.138-23.174 6.095-28.56 2.739a51.175 51.175 0 004.8 7.562c6.126 1.137 15.216-.327 24.154-4.333a46.189 46.189 0 0014.05-9.341 68.62 68.62 0 003.219-10.881c-2.384 4.865-8.844 10.302-17.663 14.254z"/><path class="j" d="M367.753 586.709v38.4c3.917 0 7.254-.691 8.588-1.663h.013c.058-.046.115-.1.173-.142l.029-.024c12.071-9.562 18.7-28.593 18.7-44.326-.003 4.281-12.314 7.755-27.503 7.755z"/><g transform="translate(340.251 571.189)"><ellipse class="h" cx="27.502" cy="7.76" rx="27.502" ry="7.76"/><ellipse cx="24.406" cy="6.886" rx="24.406" ry="6.886" transform="translate(3.096 .874)" fill="#ff9c0a"/><path class="j" d="M27.502 0v15.519c15.189 0 27.5-3.474 27.5-7.76S42.691 0 27.502 0z"/></g><g><path class="i" d="M376.608 640.967c0 2.056-3.964 3.724-8.855 3.724s-8.855-1.667-8.855-3.724 3.964-3.724 8.855-3.724 8.855 1.667 8.855 3.724z"/><path class="g" d="M367.753 637.243c4.891 0 8.855 1.667 8.855 3.724s-3.964 3.723-8.855 3.723z"/></g><g fill="#ff7058"><path d="M376.341 623.443a44.661 44.661 0 01-17.177 0c4.744 3.359 3.089 7.14 1.261 8.128-.107.071-.166.145-.166.221 0 .585 3.355 1.06 7.493 1.06s7.493-.474 7.493-1.06c0-.076-.059-.149-.166-.221-1.827-.988-3.485-4.769 1.262-8.128z"/><path d="M367.752 624.277v8.574c4.138 0 7.493-.474 7.493-1.06 0-.076-.059-.149-.166-.221-1.828-.988-3.483-4.769 1.261-8.128a32.311 32.311 0 01-8.588.835z" style="mix-blend-mode:multiply;isolation:isolate" opacity=".6"/></g><path d="M367.563 596.688l2.271 6.921h7.246l-5.84 4.326 2.163 6.922-5.84-4.326-5.84 4.326 2.163-6.922-5.84-4.326h7.246z" fill="#fff"/></g></g></svg>