<svg xmlns="http://www.w3.org/2000/svg" width="114" height="98"><defs><linearGradient id="a" x1=".544" y1=".654" x2=".53" y2="1" gradientUnits="objectBoundingBox"><stop offset="0" stop-color="#023c8e"/><stop offset="1" stop-color="#000206"/></linearGradient><clipPath id="b"><path d="M621.426 397.569h90.764l-15.821 48.67s-5.317 21.217-30.364 21.217-31.968-21.217-31.968-21.217z" fill="#03ff14"/></clipPath><style>.f{fill:#7b7b7b;mix-blend-mode:color-burn;isolation:isolate}.l,.m,.n,.w{fill-rule:evenodd}.k{fill:#bdbdbd}.l,.q{fill:#fff}.m{fill:#e1e1e1}.n{fill:#f1f1f1}.w{fill:#d0d0d0}.t{fill:#d9d9d9}.u{fill:#ff6310}</style></defs><g transform="translate(26.137 33)" stroke="rgba(1,104,179,.21)" stroke-width="4" fill="url(#a)"><circle cx="32" cy="32" r="32" stroke="none"/><circle cx="32" cy="32" r="34" fill="none"/></g><g clip-path="url(#b)" transform="translate(-607.332 -370.415)"><path d="M690.751 410.948a1.54 1.54 0 010-3.07h10.174a1.48 1.48 0 011.42 1.535 1.639 1.639 0 01-.051.408c-.377 2.1-5.742 29.366-30.934 29.805a1.534 1.534 0 01-.045-3.058c20.089-.351 26.353-19.56 27.832-25.62zm-51.284-3.07a1.54 1.54 0 010 3.07h-8.443c1.308 6.014 7.062 25.269 27.161 25.62a1.534 1.534 0 01-.044 3.058c-25.226-.441-29.9-27.744-30.225-29.842a1.614 1.614 0 01-.042-.372 1.48 1.48 0 011.419-1.535z" fill="#b3b3b3"/><path fill="#ff7058" d="M660.082 445.347h10.323v13.966h-10.323z"/><path class="f" d="M660.082 443.509h10.323v5.928h-10.323zM660.082 454.021h10.323v5.929h-10.323z"/><path d="M665.109 473.79c5.588 0 10.145-4.142 10.145-9.22s-4.557-9.219-10.145-9.219-10.147 4.142-10.147 9.219 4.559 9.22 10.147 9.22z" fill-rule="evenodd" fill="#e2e2e2"/><path fill="#8e4a15" d="M641.158 467.923h47.901v18.492h-47.901z"/><path fill="#ffb103" d="M650.085 471.348h30.048v11.642h-30.048z"/><path fill="#e2e2e2" d="M652.891 464.299h24.434v3.624h-24.434z"/><path class="k" d="M654.962 463.268h20.292v1.03h-20.292z"/><path class="l" d="M673.248 462.346c-1.35-3.273-3.305-5.284-5.686-6.25 1.486 1.073 2.279 3.738 2.563 6.25z"/><path class="m" d="M665.109 448.517a9.969 9.969 0 10-10.147-9.967 10.076 10.076 0 0010.147 9.967z"/><path class="n" d="M673.248 440.503c-1.35 3.272-3.305 5.283-5.686 6.249 1.486-1.073 2.279-3.737 2.563-6.249z"/><path class="m" d="M665.106 438.204a20.672 20.672 0 0020.747-18.8h-41.491a20.672 20.672 0 0020.744 18.8z"/><path class="n" d="M681.807 421.761c-2.769 6.712-6.78 10.839-11.665 12.822 3.047-2.2 4.674-7.667 5.258-12.822z"/><path class="k" d="M644.362 400.449h41.494v19.993h-41.494z"/><path d="M643.29 399.415h43.636a4.541 4.541 0 014.541 4.541v10.913a4.539 4.539 0 01-4.539 4.539h-43.639a4.539 4.539 0 01-4.539-4.539v-10.914a4.54 4.54 0 014.54-4.54z" fill="#dfdfdf"/><path fill="#c5c3c3" d="M655.227 435.482h19.764v1.034h-19.764z"/><path class="q" d="M675.452 401.716h6.803v15.391h-6.803z"/><path style="mix-blend-mode:overlay;isolation:isolate" opacity=".39" fill="#fff" d="M667.334 449.986h1.329v3.284h-1.329z"/><path class="q" d="M665.31 422.914l1.271 3.872h4.054l-3.267 2.42 1.21 3.872-3.267-2.42-3.267 2.42 1.21-3.872-3.267-2.42h4.054z"/></g><path d="M103.547 8.406l-1.735.352a.767.767 0 000 1.5l1.735.352a4.343 4.343 0 013.394 3.396l.352 1.735a.767.767 0 001.5 0l.352-1.735a4.343 4.343 0 013.396-3.4l1.735-.352a.767.767 0 000-1.5l-1.735-.348a4.343 4.343 0 01-3.394-3.4l-.352-1.735a.767.767 0 00-1.5 0l-.354 1.735a4.343 4.343 0 01-3.394 3.4z" fill="#d0d0d0"/><path class="t" d="M27.155 38.672l-.534.108a.236.236 0 000 .462l.534.108a1.336 1.336 0 011.044 1.044l.108.534a.236.236 0 00.462 0l.108-.534a1.336 1.336 0 011.044-1.041l.534-.108a.236.236 0 000-.462l-.534-.108a1.336 1.336 0 01-1.044-1.044l-.108-.534a.236.236 0 00-.462 0l-.108.534a1.336 1.336 0 01-1.044 1.041zM5.014 28.463l-2.408.488a1.064 1.064 0 000 2.086l2.408.488a6.026 6.026 0 014.708 4.708l.488 2.408a1.064 1.064 0 002.086 0l.488-2.408a6.026 6.026 0 014.708-4.708l2.408-.488a1.064 1.064 0 000-2.086l-2.408-.488a6.026 6.026 0 01-4.708-4.708l-.488-2.408a1.064 1.064 0 00-2.086 0l-.488 2.408a6.026 6.026 0 01-4.708 4.708z"/><path class="u" d="M4.481 14.518a.747.747 0 01.747.747v2.022a.747.747 0 01-1.494 0v-2.022a.747.747 0 01.747-.747zM4.481 9.073a.747.747 0 01.747.747v2.022a.747.747 0 01-1.494 0V9.82a.747.747 0 01.747-.747zM.747 12.807h2.022a.747.747 0 010 1.494H.747a.747.747 0 110-1.494zM6.189 12.807h2.022a.747.747 0 010 1.494H6.189a.747.747 0 010-1.494z"/><g><path class="u" d="M95.863 27.566a1.017 1.017 0 011.017 1.017v2.753a1.017 1.017 0 11-2.033 0v-2.753a1.017 1.017 0 011.016-1.017zM95.863 20.155a1.017 1.017 0 011.017 1.017v2.753a1.017 1.017 0 01-2.033 0v-2.753a1.017 1.017 0 011.016-1.017zM90.781 25.237h2.753a1.017 1.017 0 010 2.033h-2.753a1.017 1.017 0 110-2.033zM98.192 25.237h2.753a1.017 1.017 0 010 2.033h-2.753a1.017 1.017 0 010-2.033z"/></g><g><path class="m" d="M40.371 25.435l-4.105-17.2 21.063 15.289L78.393 8.23l-4.105 17.2H40.371z"/><path class="n" d="M49.146 23.407l-8.977-7.3 2.234 7.3zM65.514 23.407l8.977-7.3-2.234 7.3z"/><path class="m" d="M47.531 25.435l9.8-23.56 9.8 23.56z"/><path class="n" d="M53.771 23.407l3.559-12.476 3.558 12.476z"/><path d="M40.898 22.861h32.863a2.075 2.075 0 012.069 2.07A2.075 2.075 0 0173.761 27H40.898a2.075 2.075 0 01-2.069-2.069 2.075 2.075 0 012.069-2.07z" fill="#bdbdbd" fill-rule="evenodd"/><path class="w" d="M57.33 3.749a1.874 1.874 0 10-1.875-1.874 1.878 1.878 0 001.875 1.874zM78.393 10.106a1.874 1.874 0 10-1.874-1.875 1.878 1.878 0 001.874 1.875zM36.266 10.106a1.874 1.874 0 10-1.875-1.875 1.878 1.878 0 001.875 1.875z"/><path class="l" d="M57.329 26.999a2.069 2.069 0 10-2.069-2.069 2.073 2.073 0 002.069 2.069zM51.939 26.472a1.542 1.542 0 10-1.542-1.542 1.545 1.545 0 001.542 1.542zM47.672 25.95a1.021 1.021 0 10-1.021-1.021 1.023 1.023 0 001.021 1.021zM62.719 26.472a1.542 1.542 0 10-1.542-1.542 1.545 1.545 0 001.542 1.542zM66.986 25.95a1.021 1.021 0 10-1.021-1.021 1.022 1.022 0 001.021 1.021z"/><path d="M57.334 26.209a1.283 1.283 0 10-1.283-1.283 1.286 1.286 0 001.283 1.283z" fill="#ff6310" fill-rule="evenodd"/></g></svg>